<mxfile host="app.diagrams.net" agent="Mozilla/5.0 (Windows NT 10.0; Win64; x64) AppleWebKit/537.36 (KHTML, like Gecko) Chrome/135.0.0.0 Safari/537.36" version="26.2.13">
  <diagram name="Page-1" id="hfvZb3yNalIBNudWdX7k">
    <mxGraphModel dx="1530" dy="2089" grid="1" gridSize="10" guides="1" tooltips="1" connect="1" arrows="1" fold="1" page="1" pageScale="1" pageWidth="827" pageHeight="1169" math="0" shadow="0">
      <root>
        <mxCell id="0" />
        <mxCell id="1" parent="0" />
        <UserObject label="" plantUmlData="{&#xa;  &quot;data&quot;: &quot;@startuml\n&#39; Enable styling\nskinparam backgroundColor #FFFFFF\nskinparam activity {\n  BackgroundColor&lt;&lt;IO&gt;&gt; #DFF0D8\n  BackgroundColor&lt;&lt;P&gt;&gt; #D9EDF7\n  BackgroundColor&lt;&lt;D&gt;&gt; #FCF8E3\n  BorderColor #333\n  FontSize 12\n}\n\nstart\n\n:Admin enters email &amp; password; &lt;&lt;IO&gt;&gt;\n:Validate credentials; &lt;&lt;P&gt;&gt;\nif (Credentials valid?) then (yes)\n  :Dashboard; &lt;&lt;P&gt;&gt;\nelse (no)\n  :Display \&quot;Login failed\&quot;; &lt;&lt;IO&gt;&gt;\n  stop\nendif\n\n&#39; Fork into 4 modules\nfork\n\n  &#39; Monitor Book-Exchange\n  :Retrieve exchange stats; &lt;&lt;P&gt;&gt;\n  :Render charts &amp; KPI cards; &lt;&lt;P&gt;&gt;\n  :Show live dashboard to admin; &lt;&lt;IO&gt;&gt;\n  if (Drill-down click?) then (yes)\n    :Load detailed report for selected metric; &lt;&lt;P&gt;&gt;\n    :Display report; &lt;&lt;IO&gt;&gt;\n  endif\n  :Back to Dashboard; &lt;&lt;P&gt;&gt;\n\nfork again\n\n  &#39; Manage Academic Staff\n  :Fetch staff list; &lt;&lt;P&gt;&gt;\n  :Show table of staff; &lt;&lt;IO&gt;&gt;\n  if (Action chosen? Add / Edit / Delete) then (Add)\n    :Open \&quot;Add Staff\&quot; form; &lt;&lt;IO&gt;&gt;\n    :Validate form; &lt;&lt;P&gt;&gt;\n    if (Valid?) then (yes)\n      :Insert new staff record; &lt;&lt;P&gt;&gt;\n      :Refresh table; &lt;&lt;IO&gt;&gt;\n    else (no)\n      :Show errors; &lt;&lt;IO&gt;&gt;\n    endif\n  elseif (Edit)\n    :Open \&quot;Edit Staff\&quot; form; &lt;&lt;IO&gt;&gt;\n    :Validate changes; &lt;&lt;P&gt;&gt;\n    :Update staff record; &lt;&lt;P&gt;&gt;\n    :Refresh table; &lt;&lt;IO&gt;&gt;\n  elseif (Delete)\n    if (Confirm delete?) then (yes)\n      :Remove staff record; &lt;&lt;P&gt;&gt;\n      :Refresh table; &lt;&lt;IO&gt;&gt;\n    endif\n  endif\n  :Back to Dashboard; &lt;&lt;P&gt;&gt;\n\nfork again\n\n  &#39; Manage Departments\n  :Select major tab; &lt;&lt;IO&gt;&gt;\n  :Load books &amp; courses; &lt;&lt;P&gt;&gt;\n  :Display two tables (Books, Courses); &lt;&lt;IO&gt;&gt;\n  if (Action? Add / Edit / Delete) then\n    :Follow same Add-Edit-Delete sub-flows; &lt;&lt;P&gt;&gt;\n  endif\n  :Back to Dashboard; &lt;&lt;P&gt;&gt;\n\nfork again\n\n  &#39; Manage Users\n  :Fetch user list; &lt;&lt;P&gt;&gt;\n  :Show user table; &lt;&lt;IO&gt;&gt;\n  if (Action? Promote / Block / Delete) then (Promote)\n    if (Promote to Admin?) then (yes)\n      :Update user role; &lt;&lt;P&gt;&gt;\n      :Show \&quot;Role updated\&quot;; &lt;&lt;IO&gt;&gt;\n    endif\n  elseif (Block)\n    if (Confirm block?) then (yes)\n      :Set user status = blocked; &lt;&lt;P&gt;&gt;\n      :Show \&quot;User blocked\&quot;; &lt;&lt;IO&gt;&gt;\n    endif\n  elseif (Delete)\n    if (Confirm delete?) then (yes)\n      :Remove user record; &lt;&lt;P&gt;&gt;\n      :Refresh table; &lt;&lt;IO&gt;&gt;\n    endif\n  endif\n  :Back to Dashboard; &lt;&lt;P&gt;&gt;\n\nend fork\n\nstop\n@enduml\n&quot;,&#xa;  &quot;format&quot;: &quot;svg&quot;&#xa;}" id="Fq10grkMZLfBdpYwXT-2-1">
          <mxCell style="shape=image;noLabel=1;verticalAlign=top;aspect=fixed;imageAspect=0;image=data:image/svg+xml,PHN2ZyB4bWxucz0iaHR0cDovL3d3dy53My5vcmcvMjAwMC9zdmciIHhtbG5zOnhsaW5rPSJodHRwOi8vd3d3LnczLm9yZy8xOTk5L3hsaW5rIiBjb250ZW50U3R5bGVUeXBlPSJ0ZXh0L2NzcyIgZGF0YS1kaWFncmFtLXR5cGU9IkFDVElWSVRZIiBoZWlnaHQ9IjEwNDlweCIgcHJlc2VydmVBc3BlY3RSYXRpbz0ibm9uZSIgc3R5bGU9IndpZHRoOjE4NzZweDtoZWlnaHQ6MTA0OXB4O2JhY2tncm91bmQ6I0ZGRkZGRjsiIHZlcnNpb249IjEuMSIgdmlld0JveD0iMCAwIDE4NzYgMTA0OSIgd2lkdGg9IjE4NzZweCIgem9vbUFuZFBhbj0ibWFnbmlmeSI+PGRlZnMvPjxnPjxlbGxpcHNlIGN4PSI5NjIiIGN5PSIyMCIgZmlsbD0iIzIyMjIyMiIgcng9IjEwIiByeT0iMTAiIHN0eWxlPSJzdHJva2U6IzIyMjIyMjtzdHJva2Utd2lkdGg6MTsiLz48cmVjdCBmaWxsPSIjREZGMEQ4IiBoZWlnaHQ9IjMyLjg0MzgiIHJ4PSIxMi41IiByeT0iMTIuNSIgc3R5bGU9InN0cm9rZTojMzMzMzMzO3N0cm9rZS13aWR0aDowLjU7IiB3aWR0aD0iMTk0IiB4PSI4NjUiIHk9IjUwIi8+PHRleHQgZmlsbD0iIzAwMDAwMCIgZm9udC1mYW1pbHk9InNhbnMtc2VyaWYiIGZvbnQtc2l6ZT0iMTIiIGxlbmd0aEFkanVzdD0ic3BhY2luZyIgdGV4dExlbmd0aD0iMTc0IiB4PSI4NzUiIHk9IjcxLjM0MzgiPkFkbWluIGVudGVycyBlbWFpbCAmYW1wOyBwYXNzd29yZDwvdGV4dD48cmVjdCBmaWxsPSIjRDlFREY3IiBoZWlnaHQ9IjMyLjg0MzgiIHJ4PSIxMi41IiByeT0iMTIuNSIgc3R5bGU9InN0cm9rZTojMzMzMzMzO3N0cm9rZS13aWR0aDowLjU7IiB3aWR0aD0iMTQwIiB4PSI4OTIiIHk9IjEwMi44NDM4Ii8+PHRleHQgZmlsbD0iIzAwMDAwMCIgZm9udC1mYW1pbHk9InNhbnMtc2VyaWYiIGZvbnQtc2l6ZT0iMTIiIGxlbmd0aEFkanVzdD0ic3BhY2luZyIgdGV4dExlbmd0aD0iMTIwIiB4PSI5MDIiIHk9IjEyNC4xODc1Ij5WYWxpZGF0ZSBjcmVkZW50aWFsczwvdGV4dD48cG9seWdvbiBmaWxsPSIjRjFGMUYxIiBwb2ludHM9IjkwOCwxNTUuNjg3NSwxMDE2LDE1NS42ODc1LDEwMjgsMTY3LjY4NzUsMTAxNiwxNzkuNjg3NSw5MDgsMTc5LjY4NzUsODk2LDE2Ny42ODc1LDkwOCwxNTUuNjg3NSIgc3R5bGU9InN0cm9rZTojMzMzMzMzO3N0cm9rZS13aWR0aDowLjU7Ii8+PHRleHQgZmlsbD0iIzAwMDAwMCIgZm9udC1mYW1pbHk9InNhbnMtc2VyaWYiIGZvbnQtc2l6ZT0iMTIiIGxlbmd0aEFkanVzdD0ic3BhY2luZyIgdGV4dExlbmd0aD0iMTA4IiB4PSI5MDgiIHk9IjE3Mi42MDk0Ij5DcmVkZW50aWFscyB2YWxpZD88L3RleHQ+PHRleHQgZmlsbD0iIzAwMDAwMCIgZm9udC1mYW1pbHk9InNhbnMtc2VyaWYiIGZvbnQtc2l6ZT0iMTEiIGxlbmd0aEFkanVzdD0ic3BhY2luZyIgdGV4dExlbmd0aD0iMTYuNSIgeD0iODc5LjUiIHk9IjE2Ni4zMTI1Ij55ZXM8L3RleHQ+PHRleHQgZmlsbD0iIzAwMDAwMCIgZm9udC1mYW1pbHk9InNhbnMtc2VyaWYiIGZvbnQtc2l6ZT0iMTEiIGxlbmd0aEFkanVzdD0ic3BhY2luZyIgdGV4dExlbmd0aD0iMTEiIHg9IjEwMjgiIHk9IjE2Ni4zMTI1Ij5ubzwvdGV4dD48cmVjdCBmaWxsPSIjRDlFREY3IiBoZWlnaHQ9IjMyLjg0MzgiIHJ4PSIxMi41IiByeT0iMTIuNSIgc3R5bGU9InN0cm9rZTojMzMzMzMzO3N0cm9rZS13aWR0aDowLjU7IiB3aWR0aD0iNzQiIHg9Ijg0OSIgeT0iMTg5LjY4NzUiLz48dGV4dCBmaWxsPSIjMDAwMDAwIiBmb250LWZhbWlseT0ic2Fucy1zZXJpZiIgZm9udC1zaXplPSIxMiIgbGVuZ3RoQWRqdXN0PSJzcGFjaW5nIiB0ZXh0TGVuZ3RoPSI1NCIgeD0iODU5IiB5PSIyMTEuMDMxMyI+RGFzaGJvYXJkPC90ZXh0PjxyZWN0IGZpbGw9IiNERkYwRDgiIGhlaWdodD0iMzIuODQzOCIgcng9IjEyLjUiIHJ5PSIxMi41IiBzdHlsZT0ic3Ryb2tlOiMzMzMzMzM7c3Ryb2tlLXdpZHRoOjAuNTsiIHdpZHRoPSIxNTIiIHg9Ijk2MiIgeT0iMTg5LjY4NzUiLz48dGV4dCBmaWxsPSIjMDAwMDAwIiBmb250LWZhbWlseT0ic2Fucy1zZXJpZiIgZm9udC1zaXplPSIxMiIgbGVuZ3RoQWRqdXN0PSJzcGFjaW5nIiB0ZXh0TGVuZ3RoPSIxMzIiIHg9Ijk3MiIgeT0iMjExLjAzMTMiPkRpc3BsYXkgIkxvZ2luIGZhaWxlZCI8L3RleHQ+PGVsbGlwc2UgY3g9IjEwMzgiIGN5PSIyNTMuNTMxMyIgZmlsbD0ibm9uZSIgcng9IjExIiByeT0iMTEiIHN0eWxlPSJzdHJva2U6IzIyMjIyMjtzdHJva2Utd2lkdGg6MTsiLz48ZWxsaXBzZSBjeD0iMTAzOCIgY3k9IjI1My41MzEzIiBmaWxsPSIjMjIyMjIyIiByeD0iNiIgcnk9IjYiIHN0eWxlPSJzdHJva2U6IzIyMjIyMjtzdHJva2Utd2lkdGg6MTsiLz48cmVjdCBmaWxsPSIjNTU1NTU1IiBoZWlnaHQ9IjYiIHJ4PSIyLjUiIHJ5PSIyLjUiIHN0eWxlPSJzdHJva2U6IzU1NTU1NTtzdHJva2Utd2lkdGg6MTsiIHdpZHRoPSIxODU0IiB4PSIxMSIgeT0iMjg0LjUzMTMiLz48cmVjdCBmaWxsPSIjRDlFREY3IiBoZWlnaHQ9IjMyLjg0MzgiIHJ4PSIxMi41IiByeT0iMTIuNSIgc3R5bGU9InN0cm9rZTojMzMzMzMzO3N0cm9rZS13aWR0aDowLjU7IiB3aWR0aD0iMTU4IiB4PSI3NCIgeT0iNDA2LjMzOTgiLz48dGV4dCBmaWxsPSIjMDAwMDAwIiBmb250LWZhbWlseT0ic2Fucy1zZXJpZiIgZm9udC1zaXplPSIxMiIgbGVuZ3RoQWRqdXN0PSJzcGFjaW5nIiB0ZXh0TGVuZ3RoPSIxMzgiIHg9Ijg0IiB5PSI0MjcuNjgzNiI+UmV0cmlldmUgZXhjaGFuZ2Ugc3RhdHM8L3RleHQ+PHJlY3QgZmlsbD0iI0Q5RURGNyIgaGVpZ2h0PSIzMi44NDM4IiByeD0iMTIuNSIgcnk9IjEyLjUiIHN0eWxlPSJzdHJva2U6IzMzMzMzMztzdHJva2Utd2lkdGg6MC41OyIgd2lkdGg9IjE3MCIgeD0iNjgiIHk9IjQ3NC4xODM2Ii8+PHRleHQgZmlsbD0iIzAwMDAwMCIgZm9udC1mYW1pbHk9InNhbnMtc2VyaWYiIGZvbnQtc2l6ZT0iMTIiIGxlbmd0aEFkanVzdD0ic3BhY2luZyIgdGV4dExlbmd0aD0iMTUwIiB4PSI3OCIgeT0iNDk1LjUyNzMiPlJlbmRlciBjaGFydHMgJmFtcDsgS1BJIGNhcmRzPC90ZXh0PjxyZWN0IGZpbGw9IiNERkYwRDgiIGhlaWdodD0iMzIuODQzOCIgcng9IjEyLjUiIHJ5PSIxMi41IiBzdHlsZT0ic3Ryb2tlOiMzMzMzMzM7c3Ryb2tlLXdpZHRoOjAuNTsiIHdpZHRoPSIxODgiIHg9IjU5IiB5PSI1NDIuMDI3MyIvPjx0ZXh0IGZpbGw9IiMwMDAwMDAiIGZvbnQtZmFtaWx5PSJzYW5zLXNlcmlmIiBmb250LXNpemU9IjEyIiBsZW5ndGhBZGp1c3Q9InNwYWNpbmciIHRleHRMZW5ndGg9IjE2OCIgeD0iNjkiIHk9IjU2My4zNzExIj5TaG93IGxpdmUgZGFzaGJvYXJkIHRvIGFkbWluPC90ZXh0PjxyZWN0IGZpbGw9IiNEOUVERjciIGhlaWdodD0iMzIuODQzOCIgcng9IjEyLjUiIHJ5PSIxMi41IiBzdHlsZT0ic3Ryb2tlOiMzMzMzMzM7c3Ryb2tlLXdpZHRoOjAuNTsiIHdpZHRoPSIyNjAiIHg9IjIzIiB5PSI2NTcuODcxMSIvPjx0ZXh0IGZpbGw9IiMwMDAwMDAiIGZvbnQtZmFtaWx5PSJzYW5zLXNlcmlmIiBmb250LXNpemU9IjEyIiBsZW5ndGhBZGp1c3Q9InNwYWNpbmciIHRleHRMZW5ndGg9IjI0MCIgeD0iMzMiIHk9IjY3OS4yMTQ4Ij5Mb2FkIGRldGFpbGVkIHJlcG9ydCBmb3Igc2VsZWN0ZWQgbWV0cmljPC90ZXh0PjxyZWN0IGZpbGw9IiNERkYwRDgiIGhlaWdodD0iMzIuODQzOCIgcng9IjEyLjUiIHJ5PSIxMi41IiBzdHlsZT0ic3Ryb2tlOiMzMzMzMzM7c3Ryb2tlLXdpZHRoOjAuNTsiIHdpZHRoPSIxMDQiIHg9IjEwMSIgeT0iNzI1LjcxNDgiLz48dGV4dCBmaWxsPSIjMDAwMDAwIiBmb250LWZhbWlseT0ic2Fucy1zZXJpZiIgZm9udC1zaXplPSIxMiIgbGVuZ3RoQWRqdXN0PSJzcGFjaW5nIiB0ZXh0TGVuZ3RoPSI4NCIgeD0iMTExIiB5PSI3NDcuMDU4NiI+RGlzcGxheSByZXBvcnQ8L3RleHQ+PHBvbHlnb24gZmlsbD0iI0YxRjFGMSIgcG9pbnRzPSIxMDIsNjA5Ljg3MTEsMjA0LDYwOS44NzExLDIxNiw2MjEuODcxMSwyMDQsNjMzLjg3MTEsMTAyLDYzMy44NzExLDkwLDYyMS44NzExLDEwMiw2MDkuODcxMSIgc3R5bGU9InN0cm9rZTojMzMzMzMzO3N0cm9rZS13aWR0aDowLjU7Ii8+PHRleHQgZmlsbD0iIzAwMDAwMCIgZm9udC1mYW1pbHk9InNhbnMtc2VyaWYiIGZvbnQtc2l6ZT0iMTEiIGxlbmd0aEFkanVzdD0ic3BhY2luZyIgdGV4dExlbmd0aD0iMTYuNSIgeD0iMTU3IiB5PSI2NDQuMjY5NSI+eWVzPC90ZXh0Pjx0ZXh0IGZpbGw9IiMwMDAwMDAiIGZvbnQtZmFtaWx5PSJzYW5zLXNlcmlmIiBmb250LXNpemU9IjEyIiBsZW5ndGhBZGp1c3Q9InNwYWNpbmciIHRleHRMZW5ndGg9IjEwMiIgeD0iMTAyIiB5PSI2MjYuNzkzIj5EcmlsbC1kb3duIGNsaWNrPzwvdGV4dD48cG9seWdvbiBmaWxsPSIjRjFGMUYxIiBwb2ludHM9IjE1Myw3ODIuNTU4NiwxNjUsNzk0LjU1ODYsMTUzLDgwNi41NTg2LDE0MSw3OTQuNTU4NiwxNTMsNzgyLjU1ODYiIHN0eWxlPSJzdHJva2U6IzMzMzMzMztzdHJva2Utd2lkdGg6MC41OyIvPjxyZWN0IGZpbGw9IiNEOUVERjciIGhlaWdodD0iMzIuODQzOCIgcng9IjEyLjUiIHJ5PSIxMi41IiBzdHlsZT0ic3Ryb2tlOiMzMzMzMzM7c3Ryb2tlLXdpZHRoOjAuNTsiIHdpZHRoPSIxMjIiIHg9IjkyIiB5PSI4NDEuNTU4NiIvPjx0ZXh0IGZpbGw9IiMwMDAwMDAiIGZvbnQtZmFtaWx5PSJzYW5zLXNlcmlmIiBmb250LXNpemU9IjEyIiBsZW5ndGhBZGp1c3Q9InNwYWNpbmciIHRleHRMZW5ndGg9IjEwMiIgeD0iMTAyIiB5PSI4NjIuOTAyMyI+QmFjayB0byBEYXNoYm9hcmQ8L3RleHQ+PHJlY3QgZmlsbD0iI0Q5RURGNyIgaGVpZ2h0PSIzMi44NDM4IiByeD0iMTIuNSIgcnk9IjEyLjUiIHN0eWxlPSJzdHJva2U6IzMzMzMzMztzdHJva2Utd2lkdGg6MC41OyIgd2lkdGg9IjExNiIgeD0iNTg1IiB5PSIzMTAuNTMxMyIvPjx0ZXh0IGZpbGw9IiMwMDAwMDAiIGZvbnQtZmFtaWx5PSJzYW5zLXNlcmlmIiBmb250LXNpemU9IjEyIiBsZW5ndGhBZGp1c3Q9InNwYWNpbmciIHRleHRMZW5ndGg9Ijk2IiB4PSI1OTUiIHk9IjMzMS44NzUiPkZldGNoIHN0YWZmIGxpc3Q8L3RleHQ+PHJlY3QgZmlsbD0iI0RGRjBEOCIgaGVpZ2h0PSIzMi44NDM4IiByeD0iMTIuNSIgcnk9IjEyLjUiIHN0eWxlPSJzdHJva2U6IzMzMzMzMztzdHJva2Utd2lkdGg6MC41OyIgd2lkdGg9IjEzNCIgeD0iNTc2IiB5PSIzNzguMzc1Ii8+PHRleHQgZmlsbD0iIzAwMDAwMCIgZm9udC1mYW1pbHk9InNhbnMtc2VyaWYiIGZvbnQtc2l6ZT0iMTIiIGxlbmd0aEFkanVzdD0ic3BhY2luZyIgdGV4dExlbmd0aD0iMTE0IiB4PSI1ODYiIHk9IjM5OS43MTg4Ij5TaG93IHRhYmxlIG9mIHN0YWZmPC90ZXh0Pjxwb2x5Z29uIGZpbGw9IiNGMUYxRjEiIHBvaW50cz0iMzU1LDQ3MS4yMTg4LDU1OSw0NzEuMjE4OCw1NzEsNDgzLjIxODgsNTU5LDQ5NS4yMTg4LDM1NSw0OTUuMjE4OCwzNDMsNDgzLjIxODgsMzU1LDQ3MS4yMTg4IiBzdHlsZT0ic3Ryb2tlOiMzMzMzMzM7c3Ryb2tlLXdpZHRoOjAuNTsiLz48dGV4dCBmaWxsPSIjMDAwMDAwIiBmb250LWZhbWlseT0ic2Fucy1zZXJpZiIgZm9udC1zaXplPSIxMSIgbGVuZ3RoQWRqdXN0PSJzcGFjaW5nIiB0ZXh0TGVuZ3RoPSIxNi41IiB4PSI0NjEiIHk9IjUwNS42MTcyIj5BZGQ8L3RleHQ+PHRleHQgZmlsbD0iIzAwMDAwMCIgZm9udC1mYW1pbHk9InNhbnMtc2VyaWYiIGZvbnQtc2l6ZT0iMTIiIGxlbmd0aEFkanVzdD0ic3BhY2luZyIgdGV4dExlbmd0aD0iMjA0IiB4PSIzNTUiIHk9IjQ4OC4xNDA2Ij5BY3Rpb24gY2hvc2VuPyBBZGQgLyBFZGl0IC8gRGVsZXRlPC90ZXh0PjxyZWN0IGZpbGw9IiNERkYwRDgiIGhlaWdodD0iMzIuODQzOCIgcng9IjEyLjUiIHJ5PSIxMi41IiBzdHlsZT0ic3Ryb2tlOiMzMzMzMzM7c3Ryb2tlLXdpZHRoOjAuNTsiIHdpZHRoPSIxNDYiIHg9IjM4NCIgeT0iNTI2Ljk5MjIiLz48dGV4dCBmaWxsPSIjMDAwMDAwIiBmb250LWZhbWlseT0ic2Fucy1zZXJpZiIgZm9udC1zaXplPSIxMiIgbGVuZ3RoQWRqdXN0PSJzcGFjaW5nIiB0ZXh0TGVuZ3RoPSIxMjYiIHg9IjM5NCIgeT0iNTQ4LjMzNTkiPk9wZW4gIkFkZCBTdGFmZiIgZm9ybTwvdGV4dD48cmVjdCBmaWxsPSIjRDlFREY3IiBoZWlnaHQ9IjMyLjg0MzgiIHJ4PSIxMi41IiByeT0iMTIuNSIgc3R5bGU9InN0cm9rZTojMzMzMzMzO3N0cm9rZS13aWR0aDowLjU7IiB3aWR0aD0iOTgiIHg9IjQwOCIgeT0iNTk0LjgzNTkiLz48dGV4dCBmaWxsPSIjMDAwMDAwIiBmb250LWZhbWlseT0ic2Fucy1zZXJpZiIgZm9udC1zaXplPSIxMiIgbGVuZ3RoQWRqdXN0PSJzcGFjaW5nIiB0ZXh0TGVuZ3RoPSI3OCIgeD0iNDE4IiB5PSI2MTYuMTc5NyI+VmFsaWRhdGUgZm9ybTwvdGV4dD48cG9seWdvbiBmaWxsPSIjRjFGMUYxIiBwb2ludHM9IjQzOSw2NjIuNjc5Nyw0NzUsNjYyLjY3OTcsNDg3LDY3NC42Nzk3LDQ3NSw2ODYuNjc5Nyw0MzksNjg2LjY3OTcsNDI3LDY3NC42Nzk3LDQzOSw2NjIuNjc5NyIgc3R5bGU9InN0cm9rZTojMzMzMzMzO3N0cm9rZS13aWR0aDowLjU7Ii8+PHRleHQgZmlsbD0iIzAwMDAwMCIgZm9udC1mYW1pbHk9InNhbnMtc2VyaWYiIGZvbnQtc2l6ZT0iMTIiIGxlbmd0aEFkanVzdD0ic3BhY2luZyIgdGV4dExlbmd0aD0iMzYiIHg9IjQzOSIgeT0iNjc5LjYwMTYiPlZhbGlkPzwvdGV4dD48dGV4dCBmaWxsPSIjMDAwMDAwIiBmb250LWZhbWlseT0ic2Fucy1zZXJpZiIgZm9udC1zaXplPSIxMSIgbGVuZ3RoQWRqdXN0PSJzcGFjaW5nIiB0ZXh0TGVuZ3RoPSIxNi41IiB4PSI0MTAuNSIgeT0iNjczLjMwNDciPnllczwvdGV4dD48dGV4dCBmaWxsPSIjMDAwMDAwIiBmb250LWZhbWlseT0ic2Fucy1zZXJpZiIgZm9udC1zaXplPSIxMSIgbGVuZ3RoQWRqdXN0PSJzcGFjaW5nIiB0ZXh0TGVuZ3RoPSIxMSIgeD0iNDg3IiB5PSI2NzMuMzA0NyI+bm88L3RleHQ+PHJlY3QgZmlsbD0iI0Q5RURGNyIgaGVpZ2h0PSIzMi44NDM4IiByeD0iMTIuNSIgcnk9IjEyLjUiIHN0eWxlPSJzdHJva2U6IzMzMzMzMztzdHJva2Utd2lkdGg6MC41OyIgd2lkdGg9IjE1OCIgeD0iMzA3IiB5PSI2OTYuNjc5NyIvPjx0ZXh0IGZpbGw9IiMwMDAwMDAiIGZvbnQtZmFtaWx5PSJzYW5zLXNlcmlmIiBmb250LXNpemU9IjEyIiBsZW5ndGhBZGp1c3Q9InNwYWNpbmciIHRleHRMZW5ndGg9IjEzOCIgeD0iMzE3IiB5PSI3MTguMDIzNCI+SW5zZXJ0IG5ldyBzdGFmZiByZWNvcmQ8L3RleHQ+PHJlY3QgZmlsbD0iI0RGRjBEOCIgaGVpZ2h0PSIzMi44NDM4IiByeD0iMTIuNSIgcnk9IjEyLjUiIHN0eWxlPSJzdHJva2U6IzMzMzMzMztzdHJva2Utd2lkdGg6MC41OyIgd2lkdGg9Ijk4IiB4PSIzMzciIHk9Ijc2NC41MjM0Ii8+PHRleHQgZmlsbD0iIzAwMDAwMCIgZm9udC1mYW1pbHk9InNhbnMtc2VyaWYiIGZvbnQtc2l6ZT0iMTIiIGxlbmd0aEFkanVzdD0ic3BhY2luZyIgdGV4dExlbmd0aD0iNzgiIHg9IjM0NyIgeT0iNzg1Ljg2NzIiPlJlZnJlc2ggdGFibGU8L3RleHQ+PHJlY3QgZmlsbD0iI0RGRjBEOCIgaGVpZ2h0PSIzMi44NDM4IiByeD0iMTIuNSIgcnk9IjEyLjUiIHN0eWxlPSJzdHJva2U6IzMzMzMzMztzdHJva2Utd2lkdGg6MC41OyIgd2lkdGg9Ijg2IiB4PSI0ODUiIHk9IjY5Ni42Nzk3Ii8+PHRleHQgZmlsbD0iIzAwMDAwMCIgZm9udC1mYW1pbHk9InNhbnMtc2VyaWYiIGZvbnQtc2l6ZT0iMTIiIGxlbmd0aEFkanVzdD0ic3BhY2luZyIgdGV4dExlbmd0aD0iNjYiIHg9IjQ5NSIgeT0iNzE4LjAyMzQiPlNob3cgZXJyb3JzPC90ZXh0Pjxwb2x5Z29uIGZpbGw9IiNGMUYxRjEiIHBvaW50cz0iNDU3LDgwMy4zNjcyLDQ2OSw4MTUuMzY3Miw0NTcsODI3LjM2NzIsNDQ1LDgxNS4zNjcyLDQ1Nyw4MDMuMzY3MiIgc3R5bGU9InN0cm9rZTojMzMzMzMzO3N0cm9rZS13aWR0aDowLjU7Ii8+PHBvbHlnb24gZmlsbD0iI0YxRjFGMSIgcG9pbnRzPSI2NjUsNDcxLjIxODgsNjg5LDQ3MS4yMTg4LDcwMSw0ODMuMjE4OCw2ODksNDk1LjIxODgsNjY1LDQ5NS4yMTg4LDY1Myw0ODMuMjE4OCw2NjUsNDcxLjIxODgiIHN0eWxlPSJzdHJva2U6IzMzMzMzMztzdHJva2Utd2lkdGg6MC41OyIvPjx0ZXh0IGZpbGw9IiMwMDAwMDAiIGZvbnQtZmFtaWx5PSJzYW5zLXNlcmlmIiBmb250LXNpemU9IjEyIiBsZW5ndGhBZGp1c3Q9InNwYWNpbmciIHRleHRMZW5ndGg9IjI0IiB4PSI2NjUiIHk9IjQ4OC4xNDA2Ij5FZGl0PC90ZXh0PjxyZWN0IGZpbGw9IiNERkYwRDgiIGhlaWdodD0iMzIuODQzOCIgcng9IjEyLjUiIHJ5PSIxMi41IiBzdHlsZT0ic3Ryb2tlOiMzMzMzMzM7c3Ryb2tlLXdpZHRoOjAuNTsiIHdpZHRoPSIxNTIiIHg9IjYwMSIgeT0iNTE1LjIxODgiLz48dGV4dCBmaWxsPSIjMDAwMDAwIiBmb250LWZhbWlseT0ic2Fucy1zZXJpZiIgZm9udC1zaXplPSIxMiIgbGVuZ3RoQWRqdXN0PSJzcGFjaW5nIiB0ZXh0TGVuZ3RoPSIxMzIiIHg9IjYxMSIgeT0iNTM2LjU2MjUiPk9wZW4gIkVkaXQgU3RhZmYiIGZvcm08L3RleHQ+PHJlY3QgZmlsbD0iI0Q5RURGNyIgaGVpZ2h0PSIzMi44NDM4IiByeD0iMTIuNSIgcnk9IjEyLjUiIHN0eWxlPSJzdHJva2U6IzMzMzMzMztzdHJva2Utd2lkdGg6MC41OyIgd2lkdGg9IjExNiIgeD0iNjE5IiB5PSI1ODMuMDYyNSIvPjx0ZXh0IGZpbGw9IiMwMDAwMDAiIGZvbnQtZmFtaWx5PSJzYW5zLXNlcmlmIiBmb250LXNpemU9IjEyIiBsZW5ndGhBZGp1c3Q9InNwYWNpbmciIHRleHRMZW5ndGg9Ijk2IiB4PSI2MjkiIHk9IjYwNC40MDYzIj5WYWxpZGF0ZSBjaGFuZ2VzPC90ZXh0PjxyZWN0IGZpbGw9IiNEOUVERjciIGhlaWdodD0iMzIuODQzOCIgcng9IjEyLjUiIHJ5PSIxMi41IiBzdHlsZT0ic3Ryb2tlOiMzMzMzMzM7c3Ryb2tlLXdpZHRoOjAuNTsiIHdpZHRoPSIxMzQiIHg9IjYxMCIgeT0iNjUwLjkwNjMiLz48dGV4dCBmaWxsPSIjMDAwMDAwIiBmb250LWZhbWlseT0ic2Fucy1zZXJpZiIgZm9udC1zaXplPSIxMiIgbGVuZ3RoQWRqdXN0PSJzcGFjaW5nIiB0ZXh0TGVuZ3RoPSIxMTQiIHg9IjYyMCIgeT0iNjcyLjI1Ij5VcGRhdGUgc3RhZmYgcmVjb3JkPC90ZXh0PjxyZWN0IGZpbGw9IiNERkYwRDgiIGhlaWdodD0iMzIuODQzOCIgcng9IjEyLjUiIHJ5PSIxMi41IiBzdHlsZT0ic3Ryb2tlOiMzMzMzMzM7c3Ryb2tlLXdpZHRoOjAuNTsiIHdpZHRoPSI5OCIgeD0iNjI4IiB5PSI3MTguNzUiLz48dGV4dCBmaWxsPSIjMDAwMDAwIiBmb250LWZhbWlseT0ic2Fucy1zZXJpZiIgZm9udC1zaXplPSIxMiIgbGVuZ3RoQWRqdXN0PSJzcGFjaW5nIiB0ZXh0TGVuZ3RoPSI3OCIgeD0iNjM4IiB5PSI3NDAuMDkzOCI+UmVmcmVzaCB0YWJsZTwvdGV4dD48cG9seWdvbiBmaWxsPSIjRjFGMUYxIiBwb2ludHM9IjgxMiw0NzEuMjE4OCw4NDgsNDcxLjIxODgsODYwLDQ4My4yMTg4LDg0OCw0OTUuMjE4OCw4MTIsNDk1LjIxODgsODAwLDQ4My4yMTg4LDgxMiw0NzEuMjE4OCIgc3R5bGU9InN0cm9rZTojMzMzMzMzO3N0cm9rZS13aWR0aDowLjU7Ii8+PHRleHQgZmlsbD0iIzAwMDAwMCIgZm9udC1mYW1pbHk9InNhbnMtc2VyaWYiIGZvbnQtc2l6ZT0iMTIiIGxlbmd0aEFkanVzdD0ic3BhY2luZyIgdGV4dExlbmd0aD0iMzYiIHg9IjgxMiIgeT0iNDg4LjE0MDYiPkRlbGV0ZTwvdGV4dD48cmVjdCBmaWxsPSIjRDlFREY3IiBoZWlnaHQ9IjMyLjg0MzgiIHJ4PSIxMi41IiByeT0iMTIuNSIgc3R5bGU9InN0cm9rZTojMzMzMzMzO3N0cm9rZS13aWR0aDowLjU7IiB3aWR0aD0iMTM0IiB4PSI3NjMiIHk9IjU2My4yMTg4Ii8+PHRleHQgZmlsbD0iIzAwMDAwMCIgZm9udC1mYW1pbHk9InNhbnMtc2VyaWYiIGZvbnQtc2l6ZT0iMTIiIGxlbmd0aEFkanVzdD0ic3BhY2luZyIgdGV4dExlbmd0aD0iMTE0IiB4PSI3NzMiIHk9IjU4NC41NjI1Ij5SZW1vdmUgc3RhZmYgcmVjb3JkPC90ZXh0PjxyZWN0IGZpbGw9IiNERkYwRDgiIGhlaWdodD0iMzIuODQzOCIgcng9IjEyLjUiIHJ5PSIxMi41IiBzdHlsZT0ic3Ryb2tlOiMzMzMzMzM7c3Ryb2tlLXdpZHRoOjAuNTsiIHdpZHRoPSI5OCIgeD0iNzgxIiB5PSI2MzEuMDYyNSIvPjx0ZXh0IGZpbGw9IiMwMDAwMDAiIGZvbnQtZmFtaWx5PSJzYW5zLXNlcmlmIiBmb250LXNpemU9IjEyIiBsZW5ndGhBZGp1c3Q9InNwYWNpbmciIHRleHRMZW5ndGg9Ijc4IiB4PSI3OTEiIHk9IjY1Mi40MDYzIj5SZWZyZXNoIHRhYmxlPC90ZXh0Pjxwb2x5Z29uIGZpbGw9IiNGMUYxRjEiIHBvaW50cz0iNzg1LDUxNS4yMTg4LDg3NSw1MTUuMjE4OCw4ODcsNTI3LjIxODgsODc1LDUzOS4yMTg4LDc4NSw1MzkuMjE4OCw3NzMsNTI3LjIxODgsNzg1LDUxNS4yMTg4IiBzdHlsZT0ic3Ryb2tlOiMzMzMzMzM7c3Ryb2tlLXdpZHRoOjAuNTsiLz48dGV4dCBmaWxsPSIjMDAwMDAwIiBmb250LWZhbWlseT0ic2Fucy1zZXJpZiIgZm9udC1zaXplPSIxMSIgbGVuZ3RoQWRqdXN0PSJzcGFjaW5nIiB0ZXh0TGVuZ3RoPSIxNi41IiB4PSI4MzQiIHk9IjU0OS42MTcyIj55ZXM8L3RleHQ+PHRleHQgZmlsbD0iIzAwMDAwMCIgZm9udC1mYW1pbHk9InNhbnMtc2VyaWYiIGZvbnQtc2l6ZT0iMTIiIGxlbmd0aEFkanVzdD0ic3BhY2luZyIgdGV4dExlbmd0aD0iOTAiIHg9Ijc4NSIgeT0iNTMyLjE0MDYiPkNvbmZpcm0gZGVsZXRlPzwvdGV4dD48cG9seWdvbiBmaWxsPSIjRjFGMUYxIiBwb2ludHM9IjgzMCw2ODcuOTA2Myw4NDIsNjk5LjkwNjMsODMwLDcxMS45MDYzLDgxOCw2OTkuOTA2Myw4MzAsNjg3LjkwNjMiIHN0eWxlPSJzdHJva2U6IzMzMzMzMztzdHJva2Utd2lkdGg6MC41OyIvPjxyZWN0IGZpbGw9IiNEOUVERjciIGhlaWdodD0iMzIuODQzOCIgcng9IjEyLjUiIHJ5PSIxMi41IiBzdHlsZT0ic3Ryb2tlOiMzMzMzMzM7c3Ryb2tlLXdpZHRoOjAuNTsiIHdpZHRoPSIxMjIiIHg9IjU4MiIgeT0iOTM3LjM2NzIiLz48dGV4dCBmaWxsPSIjMDAwMDAwIiBmb250LWZhbWlseT0ic2Fucy1zZXJpZiIgZm9udC1zaXplPSIxMiIgbGVuZ3RoQWRqdXN0PSJzcGFjaW5nIiB0ZXh0TGVuZ3RoPSIxMDIiIHg9IjU5MiIgeT0iOTU4LjcxMDkiPkJhY2sgdG8gRGFzaGJvYXJkPC90ZXh0PjxyZWN0IGZpbGw9IiNERkYwRDgiIGhlaWdodD0iMzIuODQzOCIgcng9IjEyLjUiIHJ5PSIxMi41IiBzdHlsZT0ic3Ryb2tlOiMzMzMzMzM7c3Ryb2tlLXdpZHRoOjAuNTsiIHdpZHRoPSIxMTYiIHg9IjEwNzAiIHk9IjQ0MC4yNjE3Ii8+PHRleHQgZmlsbD0iIzAwMDAwMCIgZm9udC1mYW1pbHk9InNhbnMtc2VyaWYiIGZvbnQtc2l6ZT0iMTIiIGxlbmd0aEFkanVzdD0ic3BhY2luZyIgdGV4dExlbmd0aD0iOTYiIHg9IjEwODAiIHk9IjQ2MS42MDU1Ij5TZWxlY3QgbWFqb3IgdGFiPC90ZXh0PjxyZWN0IGZpbGw9IiNEOUVERjciIGhlaWdodD0iMzIuODQzOCIgcng9IjEyLjUiIHJ5PSIxMi41IiBzdHlsZT0ic3Ryb2tlOiMzMzMzMzM7c3Ryb2tlLXdpZHRoOjAuNTsiIHdpZHRoPSIxNDAiIHg9IjEwNTgiIHk9IjUwOC4xMDU1Ii8+PHRleHQgZmlsbD0iIzAwMDAwMCIgZm9udC1mYW1pbHk9InNhbnMtc2VyaWYiIGZvbnQtc2l6ZT0iMTIiIGxlbmd0aEFkanVzdD0ic3BhY2luZyIgdGV4dExlbmd0aD0iMTIwIiB4PSIxMDY4IiB5PSI1MjkuNDQ5MiI+TG9hZCBib29rcyAmYW1wOyBjb3Vyc2VzPC90ZXh0PjxyZWN0IGZpbGw9IiNERkYwRDgiIGhlaWdodD0iMzIuODQzOCIgcng9IjEyLjUiIHJ5PSIxMi41IiBzdHlsZT0ic3Ryb2tlOiMzMzMzMzM7c3Ryb2tlLXdpZHRoOjAuNTsiIHdpZHRoPSIyMzAiIHg9IjEwMTMiIHk9IjU3NS45NDkyIi8+PHRleHQgZmlsbD0iIzAwMDAwMCIgZm9udC1mYW1pbHk9InNhbnMtc2VyaWYiIGZvbnQtc2l6ZT0iMTIiIGxlbmd0aEFkanVzdD0ic3BhY2luZyIgdGV4dExlbmd0aD0iMjEwIiB4PSIxMDIzIiB5PSI1OTcuMjkzIj5EaXNwbGF5IHR3byB0YWJsZXMgKEJvb2tzLCBDb3Vyc2VzKTwvdGV4dD48cmVjdCBmaWxsPSIjRDlFREY3IiBoZWlnaHQ9IjMyLjg0MzgiIHJ4PSIxMi41IiByeT0iMTIuNSIgc3R5bGU9InN0cm9rZTojMzMzMzMzO3N0cm9rZS13aWR0aDowLjU7IiB3aWR0aD0iMjQyIiB4PSIxMDA3IiB5PSI2OTEuNzkzIi8+PHRleHQgZmlsbD0iIzAwMDAwMCIgZm9udC1mYW1pbHk9InNhbnMtc2VyaWYiIGZvbnQtc2l6ZT0iMTIiIGxlbmd0aEFkanVzdD0ic3BhY2luZyIgdGV4dExlbmd0aD0iMjIyIiB4PSIxMDE3IiB5PSI3MTMuMTM2NyI+Rm9sbG93IHNhbWUgQWRkLUVkaXQtRGVsZXRlIHN1Yi1mbG93czwvdGV4dD48cG9seWdvbiBmaWxsPSIjRjFGMUYxIiBwb2ludHM9IjEwNDcsNjQzLjc5MywxMjA5LDY0My43OTMsMTIyMSw2NTUuNzkzLDEyMDksNjY3Ljc5MywxMDQ3LDY2Ny43OTMsMTAzNSw2NTUuNzkzLDEwNDcsNjQzLjc5MyIgc3R5bGU9InN0cm9rZTojMzMzMzMzO3N0cm9rZS13aWR0aDowLjU7Ii8+PHRleHQgZmlsbD0iIzAwMDAwMCIgZm9udC1mYW1pbHk9InNhbnMtc2VyaWYiIGZvbnQtc2l6ZT0iMTIiIGxlbmd0aEFkanVzdD0ic3BhY2luZyIgdGV4dExlbmd0aD0iMTYyIiB4PSIxMDQ3IiB5PSI2NjAuNzE0OCI+QWN0aW9uPyBBZGQgLyBFZGl0IC8gRGVsZXRlPC90ZXh0Pjxwb2x5Z29uIGZpbGw9IiNGMUYxRjEiIHBvaW50cz0iMTEyOCw3NDguNjM2NywxMTQwLDc2MC42MzY3LDExMjgsNzcyLjYzNjcsMTExNiw3NjAuNjM2NywxMTI4LDc0OC42MzY3IiBzdHlsZT0ic3Ryb2tlOiMzMzMzMzM7c3Ryb2tlLXdpZHRoOjAuNTsiLz48cmVjdCBmaWxsPSIjRDlFREY3IiBoZWlnaHQ9IjMyLjg0MzgiIHJ4PSIxMi41IiByeT0iMTIuNSIgc3R5bGU9InN0cm9rZTojMzMzMzMzO3N0cm9rZS13aWR0aDowLjU7IiB3aWR0aD0iMTIyIiB4PSIxMDY3IiB5PSI4MDcuNjM2NyIvPjx0ZXh0IGZpbGw9IiMwMDAwMDAiIGZvbnQtZmFtaWx5PSJzYW5zLXNlcmlmIiBmb250LXNpemU9IjEyIiBsZW5ndGhBZGp1c3Q9InNwYWNpbmciIHRleHRMZW5ndGg9IjEwMiIgeD0iMTA3NyIgeT0iODI4Ljk4MDUiPkJhY2sgdG8gRGFzaGJvYXJkPC90ZXh0PjxyZWN0IGZpbGw9IiNEOUVERjciIGhlaWdodD0iMzIuODQzOCIgcng9IjEyLjUiIHJ5PSIxMi41IiBzdHlsZT0ic3Ryb2tlOiMzMzMzMzM7c3Ryb2tlLXdpZHRoOjAuNTsiIHdpZHRoPSIxMTAiIHg9IjE1MzIiIHk9IjM2Mi4zNzUiLz48dGV4dCBmaWxsPSIjMDAwMDAwIiBmb250LWZhbWlseT0ic2Fucy1zZXJpZiIgZm9udC1zaXplPSIxMiIgbGVuZ3RoQWRqdXN0PSJzcGFjaW5nIiB0ZXh0TGVuZ3RoPSI5MCIgeD0iMTU0MiIgeT0iMzgzLjcxODgiPkZldGNoIHVzZXIgbGlzdDwvdGV4dD48cmVjdCBmaWxsPSIjREZGMEQ4IiBoZWlnaHQ9IjMyLjg0MzgiIHJ4PSIxMi41IiByeT0iMTIuNSIgc3R5bGU9InN0cm9rZTojMzMzMzMzO3N0cm9rZS13aWR0aDowLjU7IiB3aWR0aD0iMTEwIiB4PSIxNTMyIiB5PSI0MzAuMjE4OCIvPjx0ZXh0IGZpbGw9IiMwMDAwMDAiIGZvbnQtZmFtaWx5PSJzYW5zLXNlcmlmIiBmb250LXNpemU9IjEyIiBsZW5ndGhBZGp1c3Q9InNwYWNpbmciIHRleHRMZW5ndGg9IjkwIiB4PSIxNTQyIiB5PSI0NTEuNTYyNSI+U2hvdyB1c2VyIHRhYmxlPC90ZXh0Pjxwb2x5Z29uIGZpbGw9IiNGMUYxRjEiIHBvaW50cz0iMTI4NSw1MjMuMDYyNSwxNDc3LDUyMy4wNjI1LDE0ODksNTM1LjA2MjUsMTQ3Nyw1NDcuMDYyNSwxMjg1LDU0Ny4wNjI1LDEyNzMsNTM1LjA2MjUsMTI4NSw1MjMuMDYyNSIgc3R5bGU9InN0cm9rZTojMzMzMzMzO3N0cm9rZS13aWR0aDowLjU7Ii8+PHRleHQgZmlsbD0iIzAwMDAwMCIgZm9udC1mYW1pbHk9InNhbnMtc2VyaWYiIGZvbnQtc2l6ZT0iMTEiIGxlbmd0aEFkanVzdD0ic3BhY2luZyIgdGV4dExlbmd0aD0iMzguNSIgeD0iMTM4NSIgeT0iNTU3LjQ2MDkiPlByb21vdGU8L3RleHQ+PHRleHQgZmlsbD0iIzAwMDAwMCIgZm9udC1mYW1pbHk9InNhbnMtc2VyaWYiIGZvbnQtc2l6ZT0iMTIiIGxlbmd0aEFkanVzdD0ic3BhY2luZyIgdGV4dExlbmd0aD0iMTkyIiB4PSIxMjg1IiB5PSI1MzkuOTg0NCI+QWN0aW9uPyBQcm9tb3RlIC8gQmxvY2sgLyBEZWxldGU8L3RleHQ+PHJlY3QgZmlsbD0iI0Q5RURGNyIgaGVpZ2h0PSIzMi44NDM4IiByeD0iMTIuNSIgcnk9IjEyLjUiIHN0eWxlPSJzdHJva2U6IzMzMzMzMztzdHJva2Utd2lkdGg6MC41OyIgd2lkdGg9IjExNiIgeD0iMTMyMyIgeT0iNjI2LjgzNTkiLz48dGV4dCBmaWxsPSIjMDAwMDAwIiBmb250LWZhbWlseT0ic2Fucy1zZXJpZiIgZm9udC1zaXplPSIxMiIgbGVuZ3RoQWRqdXN0PSJzcGFjaW5nIiB0ZXh0TGVuZ3RoPSI5NiIgeD0iMTMzMyIgeT0iNjQ4LjE3OTciPlVwZGF0ZSB1c2VyIHJvbGU8L3RleHQ+PHJlY3QgZmlsbD0iI0RGRjBEOCIgaGVpZ2h0PSIzMi44NDM4IiByeD0iMTIuNSIgcnk9IjEyLjUiIHN0eWxlPSJzdHJva2U6IzMzMzMzMztzdHJva2Utd2lkdGg6MC41OyIgd2lkdGg9IjEzNCIgeD0iMTMxNCIgeT0iNjk0LjY3OTciLz48dGV4dCBmaWxsPSIjMDAwMDAwIiBmb250LWZhbWlseT0ic2Fucy1zZXJpZiIgZm9udC1zaXplPSIxMiIgbGVuZ3RoQWRqdXN0PSJzcGFjaW5nIiB0ZXh0TGVuZ3RoPSIxMTQiIHg9IjEzMjQiIHk9IjcxNi4wMjM0Ij5TaG93ICJSb2xlIHVwZGF0ZWQiPC90ZXh0Pjxwb2x5Z29uIGZpbGw9IiNGMUYxRjEiIHBvaW50cz0iMTMzMCw1NzguODM1OSwxNDMyLDU3OC44MzU5LDE0NDQsNTkwLjgzNTksMTQzMiw2MDIuODM1OSwxMzMwLDYwMi44MzU5LDEzMTgsNTkwLjgzNTksMTMzMCw1NzguODM1OSIgc3R5bGU9InN0cm9rZTojMzMzMzMzO3N0cm9rZS13aWR0aDowLjU7Ii8+PHRleHQgZmlsbD0iIzAwMDAwMCIgZm9udC1mYW1pbHk9InNhbnMtc2VyaWYiIGZvbnQtc2l6ZT0iMTEiIGxlbmd0aEFkanVzdD0ic3BhY2luZyIgdGV4dExlbmd0aD0iMTYuNSIgeD0iMTM4NSIgeT0iNjEzLjIzNDQiPnllczwvdGV4dD48dGV4dCBmaWxsPSIjMDAwMDAwIiBmb250LWZhbWlseT0ic2Fucy1zZXJpZiIgZm9udC1zaXplPSIxMiIgbGVuZ3RoQWRqdXN0PSJzcGFjaW5nIiB0ZXh0TGVuZ3RoPSIxMDIiIHg9IjEzMzAiIHk9IjU5NS43NTc4Ij5Qcm9tb3RlIHRvIEFkbWluPzwvdGV4dD48cG9seWdvbiBmaWxsPSIjRjFGMUYxIiBwb2ludHM9IjEzODEsNzUxLjUyMzQsMTM5Myw3NjMuNTIzNCwxMzgxLDc3NS41MjM0LDEzNjksNzYzLjUyMzQsMTM4MSw3NTEuNTIzNCIgc3R5bGU9InN0cm9rZTojMzMzMzMzO3N0cm9rZS13aWR0aDowLjU7Ii8+PHBvbHlnb24gZmlsbD0iI0YxRjFGMSIgcG9pbnRzPSIxNTY5LDUyMy4wNjI1LDE1OTksNTIzLjA2MjUsMTYxMSw1MzUuMDYyNSwxNTk5LDU0Ny4wNjI1LDE1NjksNTQ3LjA2MjUsMTU1Nyw1MzUuMDYyNSwxNTY5LDUyMy4wNjI1IiBzdHlsZT0ic3Ryb2tlOiMzMzMzMzM7c3Ryb2tlLXdpZHRoOjAuNTsiLz48dGV4dCBmaWxsPSIjMDAwMDAwIiBmb250LWZhbWlseT0ic2Fucy1zZXJpZiIgZm9udC1zaXplPSIxMiIgbGVuZ3RoQWRqdXN0PSJzcGFjaW5nIiB0ZXh0TGVuZ3RoPSIzMCIgeD0iMTU2OSIgeT0iNTM5Ljk4NDQiPkJsb2NrPC90ZXh0PjxyZWN0IGZpbGw9IiNEOUVERjciIGhlaWdodD0iMzIuODQzOCIgcng9IjEyLjUiIHJ5PSIxMi41IiBzdHlsZT0ic3Ryb2tlOiMzMzMzMzM7c3Ryb2tlLXdpZHRoOjAuNTsiIHdpZHRoPSIxNzAiIHg9IjE0OTkiIHk9IjYxNS4wNjI1Ii8+PHRleHQgZmlsbD0iIzAwMDAwMCIgZm9udC1mYW1pbHk9InNhbnMtc2VyaWYiIGZvbnQtc2l6ZT0iMTIiIGxlbmd0aEFkanVzdD0ic3BhY2luZyIgdGV4dExlbmd0aD0iMTUwIiB4PSIxNTA5IiB5PSI2MzYuNDA2MyI+U2V0IHVzZXIgc3RhdHVzID0gYmxvY2tlZDwvdGV4dD48cmVjdCBmaWxsPSIjREZGMEQ4IiBoZWlnaHQ9IjMyLjg0MzgiIHJ4PSIxMi41IiByeT0iMTIuNSIgc3R5bGU9InN0cm9rZTojMzMzMzMzO3N0cm9rZS13aWR0aDowLjU7IiB3aWR0aD0iMTM0IiB4PSIxNTE3IiB5PSI2ODIuOTA2MyIvPjx0ZXh0IGZpbGw9IiMwMDAwMDAiIGZvbnQtZmFtaWx5PSJzYW5zLXNlcmlmIiBmb250LXNpemU9IjEyIiBsZW5ndGhBZGp1c3Q9InNwYWNpbmciIHRleHRMZW5ndGg9IjExNCIgeD0iMTUyNyIgeT0iNzA0LjI1Ij5TaG93ICJVc2VyIGJsb2NrZWQiPC90ZXh0Pjxwb2x5Z29uIGZpbGw9IiNGMUYxRjEiIHBvaW50cz0iMTU0Miw1NjcuMDYyNSwxNjI2LDU2Ny4wNjI1LDE2MzgsNTc5LjA2MjUsMTYyNiw1OTEuMDYyNSwxNTQyLDU5MS4wNjI1LDE1MzAsNTc5LjA2MjUsMTU0Miw1NjcuMDYyNSIgc3R5bGU9InN0cm9rZTojMzMzMzMzO3N0cm9rZS13aWR0aDowLjU7Ii8+PHRleHQgZmlsbD0iIzAwMDAwMCIgZm9udC1mYW1pbHk9InNhbnMtc2VyaWYiIGZvbnQtc2l6ZT0iMTEiIGxlbmd0aEFkanVzdD0ic3BhY2luZyIgdGV4dExlbmd0aD0iMTYuNSIgeD0iMTU4OCIgeT0iNjAxLjQ2MDkiPnllczwvdGV4dD48dGV4dCBmaWxsPSIjMDAwMDAwIiBmb250LWZhbWlseT0ic2Fucy1zZXJpZiIgZm9udC1zaXplPSIxMiIgbGVuZ3RoQWRqdXN0PSJzcGFjaW5nIiB0ZXh0TGVuZ3RoPSI4NCIgeD0iMTU0MiIgeT0iNTgzLjk4NDQiPkNvbmZpcm0gYmxvY2s/PC90ZXh0Pjxwb2x5Z29uIGZpbGw9IiNGMUYxRjEiIHBvaW50cz0iMTU4NCw3MzkuNzUsMTU5Niw3NTEuNzUsMTU4NCw3NjMuNzUsMTU3Miw3NTEuNzUsMTU4NCw3MzkuNzUiIHN0eWxlPSJzdHJva2U6IzMzMzMzMztzdHJva2Utd2lkdGg6MC41OyIvPjxwb2x5Z29uIGZpbGw9IiNGMUYxRjEiIHBvaW50cz0iMTczOSw1MjMuMDYyNSwxNzc1LDUyMy4wNjI1LDE3ODcsNTM1LjA2MjUsMTc3NSw1NDcuMDYyNSwxNzM5LDU0Ny4wNjI1LDE3MjcsNTM1LjA2MjUsMTczOSw1MjMuMDYyNSIgc3R5bGU9InN0cm9rZTojMzMzMzMzO3N0cm9rZS13aWR0aDowLjU7Ii8+PHRleHQgZmlsbD0iIzAwMDAwMCIgZm9udC1mYW1pbHk9InNhbnMtc2VyaWYiIGZvbnQtc2l6ZT0iMTIiIGxlbmd0aEFkanVzdD0ic3BhY2luZyIgdGV4dExlbmd0aD0iMzYiIHg9IjE3MzkiIHk9IjUzOS45ODQ0Ij5EZWxldGU8L3RleHQ+PHJlY3QgZmlsbD0iI0Q5RURGNyIgaGVpZ2h0PSIzMi44NDM4IiByeD0iMTIuNSIgcnk9IjEyLjUiIHN0eWxlPSJzdHJva2U6IzMzMzMzMztzdHJva2Utd2lkdGg6MC41OyIgd2lkdGg9IjEyOCIgeD0iMTY5MyIgeT0iNjE1LjA2MjUiLz48dGV4dCBmaWxsPSIjMDAwMDAwIiBmb250LWZhbWlseT0ic2Fucy1zZXJpZiIgZm9udC1zaXplPSIxMiIgbGVuZ3RoQWRqdXN0PSJzcGFjaW5nIiB0ZXh0TGVuZ3RoPSIxMDgiIHg9IjE3MDMiIHk9IjYzNi40MDYzIj5SZW1vdmUgdXNlciByZWNvcmQ8L3RleHQ+PHJlY3QgZmlsbD0iI0RGRjBEOCIgaGVpZ2h0PSIzMi44NDM4IiByeD0iMTIuNSIgcnk9IjEyLjUiIHN0eWxlPSJzdHJva2U6IzMzMzMzMztzdHJva2Utd2lkdGg6MC41OyIgd2lkdGg9Ijk4IiB4PSIxNzA4IiB5PSI2ODIuOTA2MyIvPjx0ZXh0IGZpbGw9IiMwMDAwMDAiIGZvbnQtZmFtaWx5PSJzYW5zLXNlcmlmIiBmb250LXNpemU9IjEyIiBsZW5ndGhBZGp1c3Q9InNwYWNpbmciIHRleHRMZW5ndGg9Ijc4IiB4PSIxNzE4IiB5PSI3MDQuMjUiPlJlZnJlc2ggdGFibGU8L3RleHQ+PHBvbHlnb24gZmlsbD0iI0YxRjFGMSIgcG9pbnRzPSIxNzEyLDU2Ny4wNjI1LDE4MDIsNTY3LjA2MjUsMTgxNCw1NzkuMDYyNSwxODAyLDU5MS4wNjI1LDE3MTIsNTkxLjA2MjUsMTcwMCw1NzkuMDYyNSwxNzEyLDU2Ny4wNjI1IiBzdHlsZT0ic3Ryb2tlOiMzMzMzMzM7c3Ryb2tlLXdpZHRoOjAuNTsiLz48dGV4dCBmaWxsPSIjMDAwMDAwIiBmb250LWZhbWlseT0ic2Fucy1zZXJpZiIgZm9udC1zaXplPSIxMSIgbGVuZ3RoQWRqdXN0PSJzcGFjaW5nIiB0ZXh0TGVuZ3RoPSIxNi41IiB4PSIxNzYxIiB5PSI2MDEuNDYwOSI+eWVzPC90ZXh0Pjx0ZXh0IGZpbGw9IiMwMDAwMDAiIGZvbnQtZmFtaWx5PSJzYW5zLXNlcmlmIiBmb250LXNpemU9IjEyIiBsZW5ndGhBZGp1c3Q9InNwYWNpbmciIHRleHRMZW5ndGg9IjkwIiB4PSIxNzEyIiB5PSI1ODMuOTg0NCI+Q29uZmlybSBkZWxldGU/PC90ZXh0Pjxwb2x5Z29uIGZpbGw9IiNGMUYxRjEiIHBvaW50cz0iMTc1Nyw3MzkuNzUsMTc2OSw3NTEuNzUsMTc1Nyw3NjMuNzUsMTc0NSw3NTEuNzUsMTc1Nyw3MzkuNzUiIHN0eWxlPSJzdHJva2U6IzMzMzMzMztzdHJva2Utd2lkdGg6MC41OyIvPjxyZWN0IGZpbGw9IiNEOUVERjciIGhlaWdodD0iMzIuODQzOCIgcng9IjEyLjUiIHJ5PSIxMi41IiBzdHlsZT0ic3Ryb2tlOiMzMzMzMzM7c3Ryb2tlLXdpZHRoOjAuNTsiIHdpZHRoPSIxMjIiIHg9IjE1MjYiIHk9Ijg4NS41MjM0Ii8+PHRleHQgZmlsbD0iIzAwMDAwMCIgZm9udC1mYW1pbHk9InNhbnMtc2VyaWYiIGZvbnQtc2l6ZT0iMTIiIGxlbmd0aEFkanVzdD0ic3BhY2luZyIgdGV4dExlbmd0aD0iMTAyIiB4PSIxNTM2IiB5PSI5MDYuODY3MiI+QmFjayB0byBEYXNoYm9hcmQ8L3RleHQ+PHJlY3QgZmlsbD0iIzU1NTU1NSIgaGVpZ2h0PSI2IiByeD0iMi41IiByeT0iMi41IiBzdHlsZT0ic3Ryb2tlOiM1NTU1NTU7c3Ryb2tlLXdpZHRoOjE7IiB3aWR0aD0iMTg1NCIgeD0iMTEiIHk9Ijk5MC4yMTA5Ii8+PGVsbGlwc2UgY3g9Ijk2MiIgY3k9IjEwMjcuMjEwOSIgZmlsbD0ibm9uZSIgcng9IjExIiByeT0iMTEiIHN0eWxlPSJzdHJva2U6IzIyMjIyMjtzdHJva2Utd2lkdGg6MTsiLz48ZWxsaXBzZSBjeD0iOTYyIiBjeT0iMTAyNy4yMTA5IiBmaWxsPSIjMjIyMjIyIiByeD0iNiIgcnk9IjYiIHN0eWxlPSJzdHJva2U6IzIyMjIyMjtzdHJva2Utd2lkdGg6MTsiLz48bGluZSBzdHlsZT0ic3Ryb2tlOiMxODE4MTg7c3Ryb2tlLXdpZHRoOjE7IiB4MT0iOTYyIiB4Mj0iOTYyIiB5MT0iMzAiIHkyPSI1MCIvPjxwb2x5Z29uIGZpbGw9IiMxODE4MTgiIHBvaW50cz0iOTU4LDQwLDk2Miw1MCw5NjYsNDAsOTYyLDQ0IiBzdHlsZT0ic3Ryb2tlOiMxODE4MTg7c3Ryb2tlLXdpZHRoOjE7Ii8+PGxpbmUgc3R5bGU9InN0cm9rZTojMTgxODE4O3N0cm9rZS13aWR0aDoxOyIgeDE9Ijk2MiIgeDI9Ijk2MiIgeTE9IjgyLjg0MzgiIHkyPSIxMDIuODQzOCIvPjxwb2x5Z29uIGZpbGw9IiMxODE4MTgiIHBvaW50cz0iOTU4LDkyLjg0MzgsOTYyLDEwMi44NDM4LDk2Niw5Mi44NDM4LDk2Miw5Ni44NDM4IiBzdHlsZT0ic3Ryb2tlOiMxODE4MTg7c3Ryb2tlLXdpZHRoOjE7Ii8+PGxpbmUgc3R5bGU9InN0cm9rZTojMTgxODE4O3N0cm9rZS13aWR0aDoxOyIgeDE9IjEwMzgiIHgyPSIxMDM4IiB5MT0iMjIyLjUzMTMiIHkyPSIyNDIuNTMxMyIvPjxwb2x5Z29uIGZpbGw9IiMxODE4MTgiIHBvaW50cz0iMTAzNCwyMzIuNTMxMywxMDM4LDI0Mi41MzEzLDEwNDIsMjMyLjUzMTMsMTAzOCwyMzYuNTMxMyIgc3R5bGU9InN0cm9rZTojMTgxODE4O3N0cm9rZS13aWR0aDoxOyIvPjxsaW5lIHN0eWxlPSJzdHJva2U6IzE4MTgxODtzdHJva2Utd2lkdGg6MTsiIHgxPSI4OTYiIHgyPSI4ODYiIHkxPSIxNjcuNjg3NSIgeTI9IjE2Ny42ODc1Ii8+PGxpbmUgc3R5bGU9InN0cm9rZTojMTgxODE4O3N0cm9rZS13aWR0aDoxOyIgeDE9Ijg4NiIgeDI9Ijg4NiIgeTE9IjE2Ny42ODc1IiB5Mj0iMTg5LjY4NzUiLz48cG9seWdvbiBmaWxsPSIjMTgxODE4IiBwb2ludHM9Ijg4MiwxNzkuNjg3NSw4ODYsMTg5LjY4NzUsODkwLDE3OS42ODc1LDg4NiwxODMuNjg3NSIgc3R5bGU9InN0cm9rZTojMTgxODE4O3N0cm9rZS13aWR0aDoxOyIvPjxsaW5lIHN0eWxlPSJzdHJva2U6IzE4MTgxODtzdHJva2Utd2lkdGg6MTsiIHgxPSIxMDI4IiB4Mj0iMTAzOCIgeTE9IjE2Ny42ODc1IiB5Mj0iMTY3LjY4NzUiLz48bGluZSBzdHlsZT0ic3Ryb2tlOiMxODE4MTg7c3Ryb2tlLXdpZHRoOjE7IiB4MT0iMTAzOCIgeDI9IjEwMzgiIHkxPSIxNjcuNjg3NSIgeTI9IjE4OS42ODc1Ii8+PHBvbHlnb24gZmlsbD0iIzE4MTgxOCIgcG9pbnRzPSIxMDM0LDE3OS42ODc1LDEwMzgsMTg5LjY4NzUsMTA0MiwxNzkuNjg3NSwxMDM4LDE4My42ODc1IiBzdHlsZT0ic3Ryb2tlOiMxODE4MTg7c3Ryb2tlLXdpZHRoOjE7Ii8+PGxpbmUgc3R5bGU9InN0cm9rZTojMTgxODE4O3N0cm9rZS13aWR0aDoxOyIgeDE9Ijg4NiIgeDI9Ijg4NiIgeTE9IjIyMi41MzEzIiB5Mj0iMjY5LjUzMTMiLz48bGluZSBzdHlsZT0ic3Ryb2tlOiMxODE4MTg7c3Ryb2tlLXdpZHRoOjE7IiB4MT0iODg2IiB4Mj0iOTYyIiB5MT0iMjY5LjUzMTMiIHkyPSIyNjkuNTMxMyIvPjxsaW5lIHN0eWxlPSJzdHJva2U6IzE4MTgxODtzdHJva2Utd2lkdGg6MTsiIHgxPSI5NjIiIHgyPSI5NjIiIHkxPSIyNjkuNTMxMyIgeTI9IjI4NC41MzEzIi8+PHBvbHlnb24gZmlsbD0iIzE4MTgxOCIgcG9pbnRzPSI5NTgsMjc0LjUzMTMsOTYyLDI4NC41MzEzLDk2NiwyNzQuNTMxMyw5NjIsMjc4LjUzMTMiIHN0eWxlPSJzdHJva2U6IzE4MTgxODtzdHJva2Utd2lkdGg6MTsiLz48bGluZSBzdHlsZT0ic3Ryb2tlOiMxODE4MTg7c3Ryb2tlLXdpZHRoOjE7IiB4MT0iOTYyIiB4Mj0iOTYyIiB5MT0iMTM1LjY4NzUiIHkyPSIxNTUuNjg3NSIvPjxwb2x5Z29uIGZpbGw9IiMxODE4MTgiIHBvaW50cz0iOTU4LDE0NS42ODc1LDk2MiwxNTUuNjg3NSw5NjYsMTQ1LjY4NzUsOTYyLDE0OS42ODc1IiBzdHlsZT0ic3Ryb2tlOiMxODE4MTg7c3Ryb2tlLXdpZHRoOjE7Ii8+PGxpbmUgc3R5bGU9InN0cm9rZTojMTgxODE4O3N0cm9rZS13aWR0aDoxOyIgeDE9IjE1MyIgeDI9IjE1MyIgeTE9IjQzOS4xODM2IiB5Mj0iNDc0LjE4MzYiLz48cG9seWdvbiBmaWxsPSIjMTgxODE4IiBwb2ludHM9IjE0OSw0NjQuMTgzNiwxNTMsNDc0LjE4MzYsMTU3LDQ2NC4xODM2LDE1Myw0NjguMTgzNiIgc3R5bGU9InN0cm9rZTojMTgxODE4O3N0cm9rZS13aWR0aDoxOyIvPjxsaW5lIHN0eWxlPSJzdHJva2U6IzE4MTgxODtzdHJva2Utd2lkdGg6MTsiIHgxPSIxNTMiIHgyPSIxNTMiIHkxPSI1MDcuMDI3MyIgeTI9IjU0Mi4wMjczIi8+PHBvbHlnb24gZmlsbD0iIzE4MTgxOCIgcG9pbnRzPSIxNDksNTMyLjAyNzMsMTUzLDU0Mi4wMjczLDE1Nyw1MzIuMDI3MywxNTMsNTM2LjAyNzMiIHN0eWxlPSJzdHJva2U6IzE4MTgxODtzdHJva2Utd2lkdGg6MTsiLz48bGluZSBzdHlsZT0ic3Ryb2tlOiMxODE4MTg7c3Ryb2tlLXdpZHRoOjE7IiB4MT0iMTUzIiB4Mj0iMTUzIiB5MT0iNjkwLjcxNDgiIHkyPSI3MjUuNzE0OCIvPjxwb2x5Z29uIGZpbGw9IiMxODE4MTgiIHBvaW50cz0iMTQ5LDcxNS43MTQ4LDE1Myw3MjUuNzE0OCwxNTcsNzE1LjcxNDgsMTUzLDcxOS43MTQ4IiBzdHlsZT0ic3Ryb2tlOiMxODE4MTg7c3Ryb2tlLXdpZHRoOjE7Ii8+PGxpbmUgc3R5bGU9InN0cm9rZTojMTgxODE4O3N0cm9rZS13aWR0aDoxOyIgeDE9IjE1MyIgeDI9IjE1MyIgeTE9IjYzMy44NzExIiB5Mj0iNjU3Ljg3MTEiLz48cG9seWdvbiBmaWxsPSIjMTgxODE4IiBwb2ludHM9IjE0OSw2NDcuODcxMSwxNTMsNjU3Ljg3MTEsMTU3LDY0Ny44NzExLDE1Myw2NTEuODcxMSIgc3R5bGU9InN0cm9rZTojMTgxODE4O3N0cm9rZS13aWR0aDoxOyIvPjxsaW5lIHN0eWxlPSJzdHJva2U6IzE4MTgxODtzdHJva2Utd2lkdGg6MTsiIHgxPSIyMTYiIHgyPSIyOTMiIHkxPSI2MjEuODcxMSIgeTI9IjYyMS44NzExIi8+PHBvbHlnb24gZmlsbD0iIzE4MTgxOCIgcG9pbnRzPSIyODksNjk4LjIxNDgsMjkzLDcwOC4yMTQ4LDI5Nyw2OTguMjE0OCwyOTMsNzAyLjIxNDgiIHN0eWxlPSJzdHJva2U6IzE4MTgxODtzdHJva2Utd2lkdGg6MTsiLz48bGluZSBzdHlsZT0ic3Ryb2tlOiMxODE4MTg7c3Ryb2tlLXdpZHRoOjE7IiB4MT0iMjkzIiB4Mj0iMjkzIiB5MT0iNjIxLjg3MTEiIHkyPSI3OTQuNTU4NiIvPjxsaW5lIHN0eWxlPSJzdHJva2U6IzE4MTgxODtzdHJva2Utd2lkdGg6MTsiIHgxPSIyOTMiIHgyPSIxNjUiIHkxPSI3OTQuNTU4NiIgeTI9Ijc5NC41NTg2Ii8+PHBvbHlnb24gZmlsbD0iIzE4MTgxOCIgcG9pbnRzPSIxNzUsNzkwLjU1ODYsMTY1LDc5NC41NTg2LDE3NSw3OTguNTU4NiwxNzEsNzk0LjU1ODYiIHN0eWxlPSJzdHJva2U6IzE4MTgxODtzdHJva2Utd2lkdGg6MTsiLz48bGluZSBzdHlsZT0ic3Ryb2tlOiMxODE4MTg7c3Ryb2tlLXdpZHRoOjE7IiB4MT0iMTUzIiB4Mj0iMTUzIiB5MT0iNzU4LjU1ODYiIHkyPSI3ODIuNTU4NiIvPjxwb2x5Z29uIGZpbGw9IiMxODE4MTgiIHBvaW50cz0iMTQ5LDc3Mi41NTg2LDE1Myw3ODIuNTU4NiwxNTcsNzcyLjU1ODYsMTUzLDc3Ni41NTg2IiBzdHlsZT0ic3Ryb2tlOiMxODE4MTg7c3Ryb2tlLXdpZHRoOjE7Ii8+PGxpbmUgc3R5bGU9InN0cm9rZTojMTgxODE4O3N0cm9rZS13aWR0aDoxOyIgeDE9IjE1MyIgeDI9IjE1MyIgeTE9IjU3NC44NzExIiB5Mj0iNjA5Ljg3MTEiLz48cG9seWdvbiBmaWxsPSIjMTgxODE4IiBwb2ludHM9IjE0OSw1OTkuODcxMSwxNTMsNjA5Ljg3MTEsMTU3LDU5OS44NzExLDE1Myw2MDMuODcxMSIgc3R5bGU9InN0cm9rZTojMTgxODE4O3N0cm9rZS13aWR0aDoxOyIvPjxsaW5lIHN0eWxlPSJzdHJva2U6IzE4MTgxODtzdHJva2Utd2lkdGg6MTsiIHgxPSIxNTMiIHgyPSIxNTMiIHkxPSI4MDYuNTU4NiIgeTI9Ijg0MS41NTg2Ii8+PHBvbHlnb24gZmlsbD0iIzE4MTgxOCIgcG9pbnRzPSIxNDksODMxLjU1ODYsMTUzLDg0MS41NTg2LDE1Nyw4MzEuNTU4NiwxNTMsODM1LjU1ODYiIHN0eWxlPSJzdHJva2U6IzE4MTgxODtzdHJva2Utd2lkdGg6MTsiLz48bGluZSBzdHlsZT0ic3Ryb2tlOiMxODE4MTg7c3Ryb2tlLXdpZHRoOjE7IiB4MT0iNjQzIiB4Mj0iNjQzIiB5MT0iMzQzLjM3NSIgeTI9IjM3OC4zNzUiLz48cG9seWdvbiBmaWxsPSIjMTgxODE4IiBwb2ludHM9IjYzOSwzNjguMzc1LDY0MywzNzguMzc1LDY0NywzNjguMzc1LDY0MywzNzIuMzc1IiBzdHlsZT0ic3Ryb2tlOiMxODE4MTg7c3Ryb2tlLXdpZHRoOjE7Ii8+PGxpbmUgc3R5bGU9InN0cm9rZTojMTgxODE4O3N0cm9rZS13aWR0aDoxOyIgeDE9IjQ1NyIgeDI9IjQ1NyIgeTE9IjU1OS44MzU5IiB5Mj0iNTk0LjgzNTkiLz48cG9seWdvbiBmaWxsPSIjMTgxODE4IiBwb2ludHM9IjQ1Myw1ODQuODM1OSw0NTcsNTk0LjgzNTksNDYxLDU4NC44MzU5LDQ1Nyw1ODguODM1OSIgc3R5bGU9InN0cm9rZTojMTgxODE4O3N0cm9rZS13aWR0aDoxOyIvPjxsaW5lIHN0eWxlPSJzdHJva2U6IzE4MTgxODtzdHJva2Utd2lkdGg6MTsiIHgxPSIzODYiIHgyPSIzODYiIHkxPSI3MjkuNTIzNCIgeTI9Ijc2NC41MjM0Ii8+PHBvbHlnb24gZmlsbD0iIzE4MTgxOCIgcG9pbnRzPSIzODIsNzU0LjUyMzQsMzg2LDc2NC41MjM0LDM5MCw3NTQuNTIzNCwzODYsNzU4LjUyMzQiIHN0eWxlPSJzdHJva2U6IzE4MTgxODtzdHJva2Utd2lkdGg6MTsiLz48bGluZSBzdHlsZT0ic3Ryb2tlOiMxODE4MTg7c3Ryb2tlLXdpZHRoOjE7IiB4MT0iNDI3IiB4Mj0iMzg2IiB5MT0iNjc0LjY3OTciIHkyPSI2NzQuNjc5NyIvPjxsaW5lIHN0eWxlPSJzdHJva2U6IzE4MTgxODtzdHJva2Utd2lkdGg6MTsiIHgxPSIzODYiIHgyPSIzODYiIHkxPSI2NzQuNjc5NyIgeTI9IjY5Ni42Nzk3Ii8+PHBvbHlnb24gZmlsbD0iIzE4MTgxOCIgcG9pbnRzPSIzODIsNjg2LjY3OTcsMzg2LDY5Ni42Nzk3LDM5MCw2ODYuNjc5NywzODYsNjkwLjY3OTciIHN0eWxlPSJzdHJva2U6IzE4MTgxODtzdHJva2Utd2lkdGg6MTsiLz48bGluZSBzdHlsZT0ic3Ryb2tlOiMxODE4MTg7c3Ryb2tlLXdpZHRoOjE7IiB4MT0iNDg3IiB4Mj0iNTI4IiB5MT0iNjc0LjY3OTciIHkyPSI2NzQuNjc5NyIvPjxsaW5lIHN0eWxlPSJzdHJva2U6IzE4MTgxODtzdHJva2Utd2lkdGg6MTsiIHgxPSI1MjgiIHgyPSI1MjgiIHkxPSI2NzQuNjc5NyIgeTI9IjY5Ni42Nzk3Ii8+PHBvbHlnb24gZmlsbD0iIzE4MTgxOCIgcG9pbnRzPSI1MjQsNjg2LjY3OTcsNTI4LDY5Ni42Nzk3LDUzMiw2ODYuNjc5Nyw1MjgsNjkwLjY3OTciIHN0eWxlPSJzdHJva2U6IzE4MTgxODtzdHJva2Utd2lkdGg6MTsiLz48bGluZSBzdHlsZT0ic3Ryb2tlOiMxODE4MTg7c3Ryb2tlLXdpZHRoOjE7IiB4MT0iMzg2IiB4Mj0iMzg2IiB5MT0iNzk3LjM2NzIiIHkyPSI4MTUuMzY3MiIvPjxsaW5lIHN0eWxlPSJzdHJva2U6IzE4MTgxODtzdHJva2Utd2lkdGg6MTsiIHgxPSIzODYiIHgyPSI0NDUiIHkxPSI4MTUuMzY3MiIgeTI9IjgxNS4zNjcyIi8+PHBvbHlnb24gZmlsbD0iIzE4MTgxOCIgcG9pbnRzPSI0MzUsODExLjM2NzIsNDQ1LDgxNS4zNjcyLDQzNSw4MTkuMzY3Miw0MzksODE1LjM2NzIiIHN0eWxlPSJzdHJva2U6IzE4MTgxODtzdHJva2Utd2lkdGg6MTsiLz48bGluZSBzdHlsZT0ic3Ryb2tlOiMxODE4MTg7c3Ryb2tlLXdpZHRoOjE7IiB4MT0iNTI4IiB4Mj0iNTI4IiB5MT0iNzI5LjUyMzQiIHkyPSI4MTUuMzY3MiIvPjxsaW5lIHN0eWxlPSJzdHJva2U6IzE4MTgxODtzdHJva2Utd2lkdGg6MTsiIHgxPSI1MjgiIHgyPSI0NjkiIHkxPSI4MTUuMzY3MiIgeTI9IjgxNS4zNjcyIi8+PHBvbHlnb24gZmlsbD0iIzE4MTgxOCIgcG9pbnRzPSI0NzksODExLjM2NzIsNDY5LDgxNS4zNjcyLDQ3OSw4MTkuMzY3Miw0NzUsODE1LjM2NzIiIHN0eWxlPSJzdHJva2U6IzE4MTgxODtzdHJva2Utd2lkdGg6MTsiLz48bGluZSBzdHlsZT0ic3Ryb2tlOiMxODE4MTg7c3Ryb2tlLXdpZHRoOjE7IiB4MT0iNDU3IiB4Mj0iNDU3IiB5MT0iNjI3LjY3OTciIHkyPSI2NjIuNjc5NyIvPjxwb2x5Z29uIGZpbGw9IiMxODE4MTgiIHBvaW50cz0iNDUzLDY1Mi42Nzk3LDQ1Nyw2NjIuNjc5Nyw0NjEsNjUyLjY3OTcsNDU3LDY1Ni42Nzk3IiBzdHlsZT0ic3Ryb2tlOiMxODE4MTg7c3Ryb2tlLXdpZHRoOjE7Ii8+PGxpbmUgc3R5bGU9InN0cm9rZTojMTgxODE4O3N0cm9rZS13aWR0aDoxOyIgeDE9IjY3NyIgeDI9IjY3NyIgeTE9IjU0OC4wNjI1IiB5Mj0iNTgzLjA2MjUiLz48cG9seWdvbiBmaWxsPSIjMTgxODE4IiBwb2ludHM9IjY3Myw1NzMuMDYyNSw2NzcsNTgzLjA2MjUsNjgxLDU3My4wNjI1LDY3Nyw1NzcuMDYyNSIgc3R5bGU9InN0cm9rZTojMTgxODE4O3N0cm9rZS13aWR0aDoxOyIvPjxsaW5lIHN0eWxlPSJzdHJva2U6IzE4MTgxODtzdHJva2Utd2lkdGg6MTsiIHgxPSI2NzciIHgyPSI2NzciIHkxPSI2MTUuOTA2MyIgeTI9IjY1MC45MDYzIi8+PHBvbHlnb24gZmlsbD0iIzE4MTgxOCIgcG9pbnRzPSI2NzMsNjQwLjkwNjMsNjc3LDY1MC45MDYzLDY4MSw2NDAuOTA2Myw2NzcsNjQ0LjkwNjMiIHN0eWxlPSJzdHJva2U6IzE4MTgxODtzdHJva2Utd2lkdGg6MTsiLz48bGluZSBzdHlsZT0ic3Ryb2tlOiMxODE4MTg7c3Ryb2tlLXdpZHRoOjE7IiB4MT0iNjc3IiB4Mj0iNjc3IiB5MT0iNjgzLjc1IiB5Mj0iNzE4Ljc1Ii8+PHBvbHlnb24gZmlsbD0iIzE4MTgxOCIgcG9pbnRzPSI2NzMsNzA4Ljc1LDY3Nyw3MTguNzUsNjgxLDcwOC43NSw2NzcsNzEyLjc1IiBzdHlsZT0ic3Ryb2tlOiMxODE4MTg7c3Ryb2tlLXdpZHRoOjE7Ii8+PGxpbmUgc3R5bGU9InN0cm9rZTojMTgxODE4O3N0cm9rZS13aWR0aDoxOyIgeDE9IjgzMCIgeDI9IjgzMCIgeTE9IjU5Ni4wNjI1IiB5Mj0iNjMxLjA2MjUiLz48cG9seWdvbiBmaWxsPSIjMTgxODE4IiBwb2ludHM9IjgyNiw2MjEuMDYyNSw4MzAsNjMxLjA2MjUsODM0LDYyMS4wNjI1LDgzMCw2MjUuMDYyNSIgc3R5bGU9InN0cm9rZTojMTgxODE4O3N0cm9rZS13aWR0aDoxOyIvPjxsaW5lIHN0eWxlPSJzdHJva2U6IzE4MTgxODtzdHJva2Utd2lkdGg6MTsiIHgxPSI4MzAiIHgyPSI4MzAiIHkxPSI1MzkuMjE4OCIgeTI9IjU2My4yMTg4Ii8+PHBvbHlnb24gZmlsbD0iIzE4MTgxOCIgcG9pbnRzPSI4MjYsNTUzLjIxODgsODMwLDU2My4yMTg4LDgzNCw1NTMuMjE4OCw4MzAsNTU3LjIxODgiIHN0eWxlPSJzdHJva2U6IzE4MTgxODtzdHJva2Utd2lkdGg6MTsiLz48bGluZSBzdHlsZT0ic3Ryb2tlOiMxODE4MTg7c3Ryb2tlLXdpZHRoOjE7IiB4MT0iODg3IiB4Mj0iOTA3IiB5MT0iNTI3LjIxODgiIHkyPSI1MjcuMjE4OCIvPjxwb2x5Z29uIGZpbGw9IiMxODE4MTgiIHBvaW50cz0iOTAzLDYwMy41NjI1LDkwNyw2MTMuNTYyNSw5MTEsNjAzLjU2MjUsOTA3LDYwNy41NjI1IiBzdHlsZT0ic3Ryb2tlOiMxODE4MTg7c3Ryb2tlLXdpZHRoOjE7Ii8+PGxpbmUgc3R5bGU9InN0cm9rZTojMTgxODE4O3N0cm9rZS13aWR0aDoxOyIgeDE9IjkwNyIgeDI9IjkwNyIgeTE9IjUyNy4yMTg4IiB5Mj0iNjk5LjkwNjMiLz48bGluZSBzdHlsZT0ic3Ryb2tlOiMxODE4MTg7c3Ryb2tlLXdpZHRoOjE7IiB4MT0iOTA3IiB4Mj0iODQyIiB5MT0iNjk5LjkwNjMiIHkyPSI2OTkuOTA2MyIvPjxwb2x5Z29uIGZpbGw9IiMxODE4MTgiIHBvaW50cz0iODUyLDY5NS45MDYzLDg0Miw2OTkuOTA2Myw4NTIsNzAzLjkwNjMsODQ4LDY5OS45MDYzIiBzdHlsZT0ic3Ryb2tlOiMxODE4MTg7c3Ryb2tlLXdpZHRoOjE7Ii8+PGxpbmUgc3R5bGU9InN0cm9rZTojMTgxODE4O3N0cm9rZS13aWR0aDoxOyIgeDE9IjgzMCIgeDI9IjgzMCIgeTE9IjY2My45MDYzIiB5Mj0iNjg3LjkwNjMiLz48cG9seWdvbiBmaWxsPSIjMTgxODE4IiBwb2ludHM9IjgyNiw2NzcuOTA2Myw4MzAsNjg3LjkwNjMsODM0LDY3Ny45MDYzLDgzMCw2ODEuOTA2MyIgc3R5bGU9InN0cm9rZTojMTgxODE4O3N0cm9rZS13aWR0aDoxOyIvPjxsaW5lIHN0eWxlPSJzdHJva2U6IzE4MTgxODtzdHJva2Utd2lkdGg6MTsiIHgxPSI0NTciIHgyPSI0NTciIHkxPSI0OTUuMjE4OCIgeTI9IjUyNi45OTIyIi8+PHBvbHlnb24gZmlsbD0iIzE4MTgxOCIgcG9pbnRzPSI0NTMsNTE2Ljk5MjIsNDU3LDUyNi45OTIyLDQ2MSw1MTYuOTkyMiw0NTcsNTIwLjk5MjIiIHN0eWxlPSJzdHJva2U6IzE4MTgxODtzdHJva2Utd2lkdGg6MTsiLz48bGluZSBzdHlsZT0ic3Ryb2tlOiMxODE4MTg7c3Ryb2tlLXdpZHRoOjE7IiB4MT0iNDU3IiB4Mj0iNDU3IiB5MT0iODI3LjM2NzIiIHkyPSI5MDIuMzY3MiIvPjxwb2x5Z29uIGZpbGw9IiMxODE4MTgiIHBvaW50cz0iNDUzLDg5Mi4zNjcyLDQ1Nyw5MDIuMzY3Miw0NjEsODkyLjM2NzIsNDU3LDg5Ni4zNjcyIiBzdHlsZT0ic3Ryb2tlOiMxODE4MTg7c3Ryb2tlLXdpZHRoOjE7Ii8+PGxpbmUgc3R5bGU9InN0cm9rZTojMTgxODE4O3N0cm9rZS13aWR0aDoxOyIgeDE9IjY3NyIgeDI9IjY3NyIgeTE9IjQ5NS4yMTg4IiB5Mj0iNTE1LjIxODgiLz48cG9seWdvbiBmaWxsPSIjMTgxODE4IiBwb2ludHM9IjY3Myw1MDUuMjE4OCw2NzcsNTE1LjIxODgsNjgxLDUwNS4yMTg4LDY3Nyw1MDkuMjE4OCIgc3R5bGU9InN0cm9rZTojMTgxODE4O3N0cm9rZS13aWR0aDoxOyIvPjxsaW5lIHN0eWxlPSJzdHJva2U6IzE4MTgxODtzdHJva2Utd2lkdGg6MTsiIHgxPSI2NzciIHgyPSI2NzciIHkxPSI3NTEuNTkzOCIgeTI9IjkwMi4zNjcyIi8+PHBvbHlnb24gZmlsbD0iIzE4MTgxOCIgcG9pbnRzPSI2NzMsODkyLjM2NzIsNjc3LDkwMi4zNjcyLDY4MSw4OTIuMzY3Miw2NzcsODk2LjM2NzIiIHN0eWxlPSJzdHJva2U6IzE4MTgxODtzdHJva2Utd2lkdGg6MTsiLz48bGluZSBzdHlsZT0ic3Ryb2tlOiMxODE4MTg7c3Ryb2tlLXdpZHRoOjE7IiB4MT0iODMwIiB4Mj0iODMwIiB5MT0iNDk1LjIxODgiIHkyPSI1MTUuMjE4OCIvPjxwb2x5Z29uIGZpbGw9IiMxODE4MTgiIHBvaW50cz0iODI2LDUwNS4yMTg4LDgzMCw1MTUuMjE4OCw4MzQsNTA1LjIxODgsODMwLDUwOS4yMTg4IiBzdHlsZT0ic3Ryb2tlOiMxODE4MTg7c3Ryb2tlLXdpZHRoOjE7Ii8+PGxpbmUgc3R5bGU9InN0cm9rZTojMTgxODE4O3N0cm9rZS13aWR0aDoxOyIgeDE9IjgzMCIgeDI9IjgzMCIgeTE9IjcxMS45MDYzIiB5Mj0iOTAyLjM2NzIiLz48cG9seWdvbiBmaWxsPSIjMTgxODE4IiBwb2ludHM9IjgyNiw4OTIuMzY3Miw4MzAsOTAyLjM2NzIsODM0LDg5Mi4zNjcyLDgzMCw4OTYuMzY3MiIgc3R5bGU9InN0cm9rZTojMTgxODE4O3N0cm9rZS13aWR0aDoxOyIvPjxsaW5lIHN0eWxlPSJzdHJva2U6IzE4MTgxODtzdHJva2Utd2lkdGg6MTsiIHgxPSI1NzEiIHgyPSI2NTMiIHkxPSI0ODMuMjE4OCIgeTI9IjQ4My4yMTg4Ii8+PHBvbHlnb24gZmlsbD0iIzE4MTgxOCIgcG9pbnRzPSI2NDMsNDc5LjIxODgsNjUzLDQ4My4yMTg4LDY0Myw0ODcuMjE4OCw2NDcsNDgzLjIxODgiIHN0eWxlPSJzdHJva2U6IzE4MTgxODtzdHJva2Utd2lkdGg6MTsiLz48bGluZSBzdHlsZT0ic3Ryb2tlOiMxODE4MTg7c3Ryb2tlLXdpZHRoOjE7IiB4MT0iNzAxIiB4Mj0iODAwIiB5MT0iNDgzLjIxODgiIHkyPSI0ODMuMjE4OCIvPjxwb2x5Z29uIGZpbGw9IiMxODE4MTgiIHBvaW50cz0iNzkwLDQ3OS4yMTg4LDgwMCw0ODMuMjE4OCw3OTAsNDg3LjIxODgsNzk0LDQ4My4yMTg4IiBzdHlsZT0ic3Ryb2tlOiMxODE4MTg7c3Ryb2tlLXdpZHRoOjE7Ii8+PGxpbmUgc3R5bGU9InN0cm9rZTojMTgxODE4O3N0cm9rZS13aWR0aDoxOyIgeDE9IjY0MyIgeDI9IjY0MyIgeTE9IjQxMS4yMTg4IiB5Mj0iNDQ2LjIxODgiLz48bGluZSBzdHlsZT0ic3Ryb2tlOiMxODE4MTg7c3Ryb2tlLXdpZHRoOjE7IiB4MT0iNjQzIiB4Mj0iNDU3IiB5MT0iNDQ2LjIxODgiIHkyPSI0NDYuMjE4OCIvPjxsaW5lIHN0eWxlPSJzdHJva2U6IzE4MTgxODtzdHJva2Utd2lkdGg6MTsiIHgxPSI0NTciIHgyPSI0NTciIHkxPSI0NDYuMjE4OCIgeTI9IjQ3MS4yMTg4Ii8+PHBvbHlnb24gZmlsbD0iIzE4MTgxOCIgcG9pbnRzPSI0NTMsNDYxLjIxODgsNDU3LDQ3MS4yMTg4LDQ2MSw0NjEuMjE4OCw0NTcsNDY1LjIxODgiIHN0eWxlPSJzdHJva2U6IzE4MTgxODtzdHJva2Utd2lkdGg6MTsiLz48bGluZSBzdHlsZT0ic3Ryb2tlOiMxODE4MTg7c3Ryb2tlLXdpZHRoOjE7IiB4MT0iODYwIiB4Mj0iOTU0IiB5MT0iNDgzLjIxODgiIHkyPSI0ODMuMjE4OCIvPjxsaW5lIHN0eWxlPSJzdHJva2U6IzE4MTgxODtzdHJva2Utd2lkdGg6MTsiIHgxPSI5NTQiIHgyPSI5NTQiIHkxPSI0ODMuMjE4OCIgeTI9IjkwMi4zNjcyIi8+PHBvbHlnb24gZmlsbD0iIzE4MTgxOCIgcG9pbnRzPSI5NTAsODkyLjM2NzIsOTU0LDkwMi4zNjcyLDk1OCw4OTIuMzY3Miw5NTQsODk2LjM2NzIiIHN0eWxlPSJzdHJva2U6IzE4MTgxODtzdHJva2Utd2lkdGg6MTsiLz48bGluZSBzdHlsZT0ic3Ryb2tlOiMxODE4MTg7c3Ryb2tlLXdpZHRoOjE7IiB4MT0iNDU3IiB4Mj0iOTU0IiB5MT0iOTAyLjM2NzIiIHkyPSI5MDIuMzY3MiIvPjxsaW5lIHN0eWxlPSJzdHJva2U6IzE4MTgxODtzdHJva2Utd2lkdGg6MTsiIHgxPSI2NDMiIHgyPSI2NDMiIHkxPSI5MDIuMzY3MiIgeTI9IjkzNy4zNjcyIi8+PHBvbHlnb24gZmlsbD0iIzE4MTgxOCIgcG9pbnRzPSI2MzksOTI3LjM2NzIsNjQzLDkzNy4zNjcyLDY0Nyw5MjcuMzY3Miw2NDMsOTMxLjM2NzIiIHN0eWxlPSJzdHJva2U6IzE4MTgxODtzdHJva2Utd2lkdGg6MTsiLz48bGluZSBzdHlsZT0ic3Ryb2tlOiMxODE4MTg7c3Ryb2tlLXdpZHRoOjE7IiB4MT0iMTEyOCIgeDI9IjExMjgiIHkxPSI0NzMuMTA1NSIgeTI9IjUwOC4xMDU1Ii8+PHBvbHlnb24gZmlsbD0iIzE4MTgxOCIgcG9pbnRzPSIxMTI0LDQ5OC4xMDU1LDExMjgsNTA4LjEwNTUsMTEzMiw0OTguMTA1NSwxMTI4LDUwMi4xMDU1IiBzdHlsZT0ic3Ryb2tlOiMxODE4MTg7c3Ryb2tlLXdpZHRoOjE7Ii8+PGxpbmUgc3R5bGU9InN0cm9rZTojMTgxODE4O3N0cm9rZS13aWR0aDoxOyIgeDE9IjExMjgiIHgyPSIxMTI4IiB5MT0iNTQwLjk0OTIiIHkyPSI1NzUuOTQ5MiIvPjxwb2x5Z29uIGZpbGw9IiMxODE4MTgiIHBvaW50cz0iMTEyNCw1NjUuOTQ5MiwxMTI4LDU3NS45NDkyLDExMzIsNTY1Ljk0OTIsMTEyOCw1NjkuOTQ5MiIgc3R5bGU9InN0cm9rZTojMTgxODE4O3N0cm9rZS13aWR0aDoxOyIvPjxsaW5lIHN0eWxlPSJzdHJva2U6IzE4MTgxODtzdHJva2Utd2lkdGg6MTsiIHgxPSIxMTI4IiB4Mj0iMTEyOCIgeTE9IjY2Ny43OTMiIHkyPSI2OTEuNzkzIi8+PHBvbHlnb24gZmlsbD0iIzE4MTgxOCIgcG9pbnRzPSIxMTI0LDY4MS43OTMsMTEyOCw2OTEuNzkzLDExMzIsNjgxLjc5MywxMTI4LDY4NS43OTMiIHN0eWxlPSJzdHJva2U6IzE4MTgxODtzdHJva2Utd2lkdGg6MTsiLz48bGluZSBzdHlsZT0ic3Ryb2tlOiMxODE4MTg7c3Ryb2tlLXdpZHRoOjE7IiB4MT0iMTIyMSIgeDI9IjEyNTkiIHkxPSI2NTUuNzkzIiB5Mj0iNjU1Ljc5MyIvPjxwb2x5Z29uIGZpbGw9IiMxODE4MTgiIHBvaW50cz0iMTI1NSw2OTguMjE0OCwxMjU5LDcwOC4yMTQ4LDEyNjMsNjk4LjIxNDgsMTI1OSw3MDIuMjE0OCIgc3R5bGU9InN0cm9rZTojMTgxODE4O3N0cm9rZS13aWR0aDoxOyIvPjxsaW5lIHN0eWxlPSJzdHJva2U6IzE4MTgxODtzdHJva2Utd2lkdGg6MTsiIHgxPSIxMjU5IiB4Mj0iMTI1OSIgeTE9IjY1NS43OTMiIHkyPSI3NjAuNjM2NyIvPjxsaW5lIHN0eWxlPSJzdHJva2U6IzE4MTgxODtzdHJva2Utd2lkdGg6MTsiIHgxPSIxMjU5IiB4Mj0iMTE0MCIgeTE9Ijc2MC42MzY3IiB5Mj0iNzYwLjYzNjciLz48cG9seWdvbiBmaWxsPSIjMTgxODE4IiBwb2ludHM9IjExNTAsNzU2LjYzNjcsMTE0MCw3NjAuNjM2NywxMTUwLDc2NC42MzY3LDExNDYsNzYwLjYzNjciIHN0eWxlPSJzdHJva2U6IzE4MTgxODtzdHJva2Utd2lkdGg6MTsiLz48bGluZSBzdHlsZT0ic3Ryb2tlOiMxODE4MTg7c3Ryb2tlLXdpZHRoOjE7IiB4MT0iMTEyOCIgeDI9IjExMjgiIHkxPSI3MjQuNjM2NyIgeTI9Ijc0OC42MzY3Ii8+PHBvbHlnb24gZmlsbD0iIzE4MTgxOCIgcG9pbnRzPSIxMTI0LDczOC42MzY3LDExMjgsNzQ4LjYzNjcsMTEzMiw3MzguNjM2NywxMTI4LDc0Mi42MzY3IiBzdHlsZT0ic3Ryb2tlOiMxODE4MTg7c3Ryb2tlLXdpZHRoOjE7Ii8+PGxpbmUgc3R5bGU9InN0cm9rZTojMTgxODE4O3N0cm9rZS13aWR0aDoxOyIgeDE9IjExMjgiIHgyPSIxMTI4IiB5MT0iNjA4Ljc5MyIgeTI9IjY0My43OTMiLz48cG9seWdvbiBmaWxsPSIjMTgxODE4IiBwb2ludHM9IjExMjQsNjMzLjc5MywxMTI4LDY0My43OTMsMTEzMiw2MzMuNzkzLDExMjgsNjM3Ljc5MyIgc3R5bGU9InN0cm9rZTojMTgxODE4O3N0cm9rZS13aWR0aDoxOyIvPjxsaW5lIHN0eWxlPSJzdHJva2U6IzE4MTgxODtzdHJva2Utd2lkdGg6MTsiIHgxPSIxMTI4IiB4Mj0iMTEyOCIgeTE9Ijc3Mi42MzY3IiB5Mj0iODA3LjYzNjciLz48cG9seWdvbiBmaWxsPSIjMTgxODE4IiBwb2ludHM9IjExMjQsNzk3LjYzNjcsMTEyOCw4MDcuNjM2NywxMTMyLDc5Ny42MzY3LDExMjgsODAxLjYzNjciIHN0eWxlPSJzdHJva2U6IzE4MTgxODtzdHJva2Utd2lkdGg6MTsiLz48bGluZSBzdHlsZT0ic3Ryb2tlOiMxODE4MTg7c3Ryb2tlLXdpZHRoOjE7IiB4MT0iMTU4NyIgeDI9IjE1ODciIHkxPSIzOTUuMjE4OCIgeTI9IjQzMC4yMTg4Ii8+PHBvbHlnb24gZmlsbD0iIzE4MTgxOCIgcG9pbnRzPSIxNTgzLDQyMC4yMTg4LDE1ODcsNDMwLjIxODgsMTU5MSw0MjAuMjE4OCwxNTg3LDQyNC4yMTg4IiBzdHlsZT0ic3Ryb2tlOiMxODE4MTg7c3Ryb2tlLXdpZHRoOjE7Ii8+PGxpbmUgc3R5bGU9InN0cm9rZTojMTgxODE4O3N0cm9rZS13aWR0aDoxOyIgeDE9IjEzODEiIHgyPSIxMzgxIiB5MT0iNjU5LjY3OTciIHkyPSI2OTQuNjc5NyIvPjxwb2x5Z29uIGZpbGw9IiMxODE4MTgiIHBvaW50cz0iMTM3Nyw2ODQuNjc5NywxMzgxLDY5NC42Nzk3LDEzODUsNjg0LjY3OTcsMTM4MSw2ODguNjc5NyIgc3R5bGU9InN0cm9rZTojMTgxODE4O3N0cm9rZS13aWR0aDoxOyIvPjxsaW5lIHN0eWxlPSJzdHJva2U6IzE4MTgxODtzdHJva2Utd2lkdGg6MTsiIHgxPSIxMzgxIiB4Mj0iMTM4MSIgeTE9IjYwMi44MzU5IiB5Mj0iNjI2LjgzNTkiLz48cG9seWdvbiBmaWxsPSIjMTgxODE4IiBwb2ludHM9IjEzNzcsNjE2LjgzNTksMTM4MSw2MjYuODM1OSwxMzg1LDYxNi44MzU5LDEzODEsNjIwLjgzNTkiIHN0eWxlPSJzdHJva2U6IzE4MTgxODtzdHJva2Utd2lkdGg6MTsiLz48bGluZSBzdHlsZT0ic3Ryb2tlOiMxODE4MTg7c3Ryb2tlLXdpZHRoOjE7IiB4MT0iMTQ0NCIgeDI9IjE0NTgiIHkxPSI1OTAuODM1OSIgeTI9IjU5MC44MzU5Ii8+PHBvbHlnb24gZmlsbD0iIzE4MTgxOCIgcG9pbnRzPSIxNDU0LDY2Ny4xNzk3LDE0NTgsNjc3LjE3OTcsMTQ2Miw2NjcuMTc5NywxNDU4LDY3MS4xNzk3IiBzdHlsZT0ic3Ryb2tlOiMxODE4MTg7c3Ryb2tlLXdpZHRoOjE7Ii8+PGxpbmUgc3R5bGU9InN0cm9rZTojMTgxODE4O3N0cm9rZS13aWR0aDoxOyIgeDE9IjE0NTgiIHgyPSIxNDU4IiB5MT0iNTkwLjgzNTkiIHkyPSI3NjMuNTIzNCIvPjxsaW5lIHN0eWxlPSJzdHJva2U6IzE4MTgxODtzdHJva2Utd2lkdGg6MTsiIHgxPSIxNDU4IiB4Mj0iMTM5MyIgeTE9Ijc2My41MjM0IiB5Mj0iNzYzLjUyMzQiLz48cG9seWdvbiBmaWxsPSIjMTgxODE4IiBwb2ludHM9IjE0MDMsNzU5LjUyMzQsMTM5Myw3NjMuNTIzNCwxNDAzLDc2Ny41MjM0LDEzOTksNzYzLjUyMzQiIHN0eWxlPSJzdHJva2U6IzE4MTgxODtzdHJva2Utd2lkdGg6MTsiLz48bGluZSBzdHlsZT0ic3Ryb2tlOiMxODE4MTg7c3Ryb2tlLXdpZHRoOjE7IiB4MT0iMTM4MSIgeDI9IjEzODEiIHkxPSI3MjcuNTIzNCIgeTI9Ijc1MS41MjM0Ii8+PHBvbHlnb24gZmlsbD0iIzE4MTgxOCIgcG9pbnRzPSIxMzc3LDc0MS41MjM0LDEzODEsNzUxLjUyMzQsMTM4NSw3NDEuNTIzNCwxMzgxLDc0NS41MjM0IiBzdHlsZT0ic3Ryb2tlOiMxODE4MTg7c3Ryb2tlLXdpZHRoOjE7Ii8+PGxpbmUgc3R5bGU9InN0cm9rZTojMTgxODE4O3N0cm9rZS13aWR0aDoxOyIgeDE9IjE1ODQiIHgyPSIxNTg0IiB5MT0iNjQ3LjkwNjMiIHkyPSI2ODIuOTA2MyIvPjxwb2x5Z29uIGZpbGw9IiMxODE4MTgiIHBvaW50cz0iMTU4MCw2NzIuOTA2MywxNTg0LDY4Mi45MDYzLDE1ODgsNjcyLjkwNjMsMTU4NCw2NzYuOTA2MyIgc3R5bGU9InN0cm9rZTojMTgxODE4O3N0cm9rZS13aWR0aDoxOyIvPjxsaW5lIHN0eWxlPSJzdHJva2U6IzE4MTgxODtzdHJva2Utd2lkdGg6MTsiIHgxPSIxNTg0IiB4Mj0iMTU4NCIgeTE9IjU5MS4wNjI1IiB5Mj0iNjE1LjA2MjUiLz48cG9seWdvbiBmaWxsPSIjMTgxODE4IiBwb2ludHM9IjE1ODAsNjA1LjA2MjUsMTU4NCw2MTUuMDYyNSwxNTg4LDYwNS4wNjI1LDE1ODQsNjA5LjA2MjUiIHN0eWxlPSJzdHJva2U6IzE4MTgxODtzdHJva2Utd2lkdGg6MTsiLz48bGluZSBzdHlsZT0ic3Ryb2tlOiMxODE4MTg7c3Ryb2tlLXdpZHRoOjE7IiB4MT0iMTYzOCIgeDI9IjE2NzkiIHkxPSI1NzkuMDYyNSIgeTI9IjU3OS4wNjI1Ii8+PHBvbHlnb24gZmlsbD0iIzE4MTgxOCIgcG9pbnRzPSIxNjc1LDY1NS40MDYzLDE2NzksNjY1LjQwNjMsMTY4Myw2NTUuNDA2MywxNjc5LDY1OS40MDYzIiBzdHlsZT0ic3Ryb2tlOiMxODE4MTg7c3Ryb2tlLXdpZHRoOjE7Ii8+PGxpbmUgc3R5bGU9InN0cm9rZTojMTgxODE4O3N0cm9rZS13aWR0aDoxOyIgeDE9IjE2NzkiIHgyPSIxNjc5IiB5MT0iNTc5LjA2MjUiIHkyPSI3NTEuNzUiLz48bGluZSBzdHlsZT0ic3Ryb2tlOiMxODE4MTg7c3Ryb2tlLXdpZHRoOjE7IiB4MT0iMTY3OSIgeDI9IjE1OTYiIHkxPSI3NTEuNzUiIHkyPSI3NTEuNzUiLz48cG9seWdvbiBmaWxsPSIjMTgxODE4IiBwb2ludHM9IjE2MDYsNzQ3Ljc1LDE1OTYsNzUxLjc1LDE2MDYsNzU1Ljc1LDE2MDIsNzUxLjc1IiBzdHlsZT0ic3Ryb2tlOiMxODE4MTg7c3Ryb2tlLXdpZHRoOjE7Ii8+PGxpbmUgc3R5bGU9InN0cm9rZTojMTgxODE4O3N0cm9rZS13aWR0aDoxOyIgeDE9IjE1ODQiIHgyPSIxNTg0IiB5MT0iNzE1Ljc1IiB5Mj0iNzM5Ljc1Ii8+PHBvbHlnb24gZmlsbD0iIzE4MTgxOCIgcG9pbnRzPSIxNTgwLDcyOS43NSwxNTg0LDczOS43NSwxNTg4LDcyOS43NSwxNTg0LDczMy43NSIgc3R5bGU9InN0cm9rZTojMTgxODE4O3N0cm9rZS13aWR0aDoxOyIvPjxsaW5lIHN0eWxlPSJzdHJva2U6IzE4MTgxODtzdHJva2Utd2lkdGg6MTsiIHgxPSIxNzU3IiB4Mj0iMTc1NyIgeTE9IjY0Ny45MDYzIiB5Mj0iNjgyLjkwNjMiLz48cG9seWdvbiBmaWxsPSIjMTgxODE4IiBwb2ludHM9IjE3NTMsNjcyLjkwNjMsMTc1Nyw2ODIuOTA2MywxNzYxLDY3Mi45MDYzLDE3NTcsNjc2LjkwNjMiIHN0eWxlPSJzdHJva2U6IzE4MTgxODtzdHJva2Utd2lkdGg6MTsiLz48bGluZSBzdHlsZT0ic3Ryb2tlOiMxODE4MTg7c3Ryb2tlLXdpZHRoOjE7IiB4MT0iMTc1NyIgeDI9IjE3NTciIHkxPSI1OTEuMDYyNSIgeTI9IjYxNS4wNjI1Ii8+PHBvbHlnb24gZmlsbD0iIzE4MTgxOCIgcG9pbnRzPSIxNzUzLDYwNS4wNjI1LDE3NTcsNjE1LjA2MjUsMTc2MSw2MDUuMDYyNSwxNzU3LDYwOS4wNjI1IiBzdHlsZT0ic3Ryb2tlOiMxODE4MTg7c3Ryb2tlLXdpZHRoOjE7Ii8+PGxpbmUgc3R5bGU9InN0cm9rZTojMTgxODE4O3N0cm9rZS13aWR0aDoxOyIgeDE9IjE4MTQiIHgyPSIxODMxIiB5MT0iNTc5LjA2MjUiIHkyPSI1NzkuMDYyNSIvPjxwb2x5Z29uIGZpbGw9IiMxODE4MTgiIHBvaW50cz0iMTgyNyw2NTUuNDA2MywxODMxLDY2NS40MDYzLDE4MzUsNjU1LjQwNjMsMTgzMSw2NTkuNDA2MyIgc3R5bGU9InN0cm9rZTojMTgxODE4O3N0cm9rZS13aWR0aDoxOyIvPjxsaW5lIHN0eWxlPSJzdHJva2U6IzE4MTgxODtzdHJva2Utd2lkdGg6MTsiIHgxPSIxODMxIiB4Mj0iMTgzMSIgeTE9IjU3OS4wNjI1IiB5Mj0iNzUxLjc1Ii8+PGxpbmUgc3R5bGU9InN0cm9rZTojMTgxODE4O3N0cm9rZS13aWR0aDoxOyIgeDE9IjE4MzEiIHgyPSIxNzY5IiB5MT0iNzUxLjc1IiB5Mj0iNzUxLjc1Ii8+PHBvbHlnb24gZmlsbD0iIzE4MTgxOCIgcG9pbnRzPSIxNzc5LDc0Ny43NSwxNzY5LDc1MS43NSwxNzc5LDc1NS43NSwxNzc1LDc1MS43NSIgc3R5bGU9InN0cm9rZTojMTgxODE4O3N0cm9rZS13aWR0aDoxOyIvPjxsaW5lIHN0eWxlPSJzdHJva2U6IzE4MTgxODtzdHJva2Utd2lkdGg6MTsiIHgxPSIxNzU3IiB4Mj0iMTc1NyIgeTE9IjcxNS43NSIgeTI9IjczOS43NSIvPjxwb2x5Z29uIGZpbGw9IiMxODE4MTgiIHBvaW50cz0iMTc1Myw3MjkuNzUsMTc1Nyw3MzkuNzUsMTc2MSw3MjkuNzUsMTc1Nyw3MzMuNzUiIHN0eWxlPSJzdHJva2U6IzE4MTgxODtzdHJva2Utd2lkdGg6MTsiLz48bGluZSBzdHlsZT0ic3Ryb2tlOiMxODE4MTg7c3Ryb2tlLXdpZHRoOjE7IiB4MT0iMTM4MSIgeDI9IjEzODEiIHkxPSI1NDcuMDYyNSIgeTI9IjU3OC44MzU5Ii8+PHBvbHlnb24gZmlsbD0iIzE4MTgxOCIgcG9pbnRzPSIxMzc3LDU2OC44MzU5LDEzODEsNTc4LjgzNTksMTM4NSw1NjguODM1OSwxMzgxLDU3Mi44MzU5IiBzdHlsZT0ic3Ryb2tlOiMxODE4MTg7c3Ryb2tlLXdpZHRoOjE7Ii8+PGxpbmUgc3R5bGU9InN0cm9rZTojMTgxODE4O3N0cm9rZS13aWR0aDoxOyIgeDE9IjEzODEiIHgyPSIxMzgxIiB5MT0iNzc1LjUyMzQiIHkyPSI4NTAuNTIzNCIvPjxwb2x5Z29uIGZpbGw9IiMxODE4MTgiIHBvaW50cz0iMTM3Nyw4NDAuNTIzNCwxMzgxLDg1MC41MjM0LDEzODUsODQwLjUyMzQsMTM4MSw4NDQuNTIzNCIgc3R5bGU9InN0cm9rZTojMTgxODE4O3N0cm9rZS13aWR0aDoxOyIvPjxsaW5lIHN0eWxlPSJzdHJva2U6IzE4MTgxODtzdHJva2Utd2lkdGg6MTsiIHgxPSIxNTg0IiB4Mj0iMTU4NCIgeTE9IjU0Ny4wNjI1IiB5Mj0iNTY3LjA2MjUiLz48cG9seWdvbiBmaWxsPSIjMTgxODE4IiBwb2ludHM9IjE1ODAsNTU3LjA2MjUsMTU4NCw1NjcuMDYyNSwxNTg4LDU1Ny4wNjI1LDE1ODQsNTYxLjA2MjUiIHN0eWxlPSJzdHJva2U6IzE4MTgxODtzdHJva2Utd2lkdGg6MTsiLz48bGluZSBzdHlsZT0ic3Ryb2tlOiMxODE4MTg7c3Ryb2tlLXdpZHRoOjE7IiB4MT0iMTU4NCIgeDI9IjE1ODQiIHkxPSI3NjMuNzUiIHkyPSI4NTAuNTIzNCIvPjxwb2x5Z29uIGZpbGw9IiMxODE4MTgiIHBvaW50cz0iMTU4MCw4NDAuNTIzNCwxNTg0LDg1MC41MjM0LDE1ODgsODQwLjUyMzQsMTU4NCw4NDQuNTIzNCIgc3R5bGU9InN0cm9rZTojMTgxODE4O3N0cm9rZS13aWR0aDoxOyIvPjxsaW5lIHN0eWxlPSJzdHJva2U6IzE4MTgxODtzdHJva2Utd2lkdGg6MTsiIHgxPSIxNzU3IiB4Mj0iMTc1NyIgeTE9IjU0Ny4wNjI1IiB5Mj0iNTY3LjA2MjUiLz48cG9seWdvbiBmaWxsPSIjMTgxODE4IiBwb2ludHM9IjE3NTMsNTU3LjA2MjUsMTc1Nyw1NjcuMDYyNSwxNzYxLDU1Ny4wNjI1LDE3NTcsNTYxLjA2MjUiIHN0eWxlPSJzdHJva2U6IzE4MTgxODtzdHJva2Utd2lkdGg6MTsiLz48bGluZSBzdHlsZT0ic3Ryb2tlOiMxODE4MTg7c3Ryb2tlLXdpZHRoOjE7IiB4MT0iMTc1NyIgeDI9IjE3NTciIHkxPSI3NjMuNzUiIHkyPSI4NTAuNTIzNCIvPjxwb2x5Z29uIGZpbGw9IiMxODE4MTgiIHBvaW50cz0iMTc1Myw4NDAuNTIzNCwxNzU3LDg1MC41MjM0LDE3NjEsODQwLjUyMzQsMTc1Nyw4NDQuNTIzNCIgc3R5bGU9InN0cm9rZTojMTgxODE4O3N0cm9rZS13aWR0aDoxOyIvPjxsaW5lIHN0eWxlPSJzdHJva2U6IzE4MTgxODtzdHJva2Utd2lkdGg6MTsiIHgxPSIxNDg5IiB4Mj0iMTU1NyIgeTE9IjUzNS4wNjI1IiB5Mj0iNTM1LjA2MjUiLz48cG9seWdvbiBmaWxsPSIjMTgxODE4IiBwb2ludHM9IjE1NDcsNTMxLjA2MjUsMTU1Nyw1MzUuMDYyNSwxNTQ3LDUzOS4wNjI1LDE1NTEsNTM1LjA2MjUiIHN0eWxlPSJzdHJva2U6IzE4MTgxODtzdHJva2Utd2lkdGg6MTsiLz48bGluZSBzdHlsZT0ic3Ryb2tlOiMxODE4MTg7c3Ryb2tlLXdpZHRoOjE7IiB4MT0iMTYxMSIgeDI9IjE3MjciIHkxPSI1MzUuMDYyNSIgeTI9IjUzNS4wNjI1Ii8+PHBvbHlnb24gZmlsbD0iIzE4MTgxOCIgcG9pbnRzPSIxNzE3LDUzMS4wNjI1LDE3MjcsNTM1LjA2MjUsMTcxNyw1MzkuMDYyNSwxNzIxLDUzNS4wNjI1IiBzdHlsZT0ic3Ryb2tlOiMxODE4MTg7c3Ryb2tlLXdpZHRoOjE7Ii8+PGxpbmUgc3R5bGU9InN0cm9rZTojMTgxODE4O3N0cm9rZS13aWR0aDoxOyIgeDE9IjE1ODciIHgyPSIxNTg3IiB5MT0iNDYzLjA2MjUiIHkyPSI0OTguMDYyNSIvPjxsaW5lIHN0eWxlPSJzdHJva2U6IzE4MTgxODtzdHJva2Utd2lkdGg6MTsiIHgxPSIxNTg3IiB4Mj0iMTM4MSIgeTE9IjQ5OC4wNjI1IiB5Mj0iNDk4LjA2MjUiLz48bGluZSBzdHlsZT0ic3Ryb2tlOiMxODE4MTg7c3Ryb2tlLXdpZHRoOjE7IiB4MT0iMTM4MSIgeDI9IjEzODEiIHkxPSI0OTguMDYyNSIgeTI9IjUyMy4wNjI1Ii8+PHBvbHlnb24gZmlsbD0iIzE4MTgxOCIgcG9pbnRzPSIxMzc3LDUxMy4wNjI1LDEzODEsNTIzLjA2MjUsMTM4NSw1MTMuMDYyNSwxMzgxLDUxNy4wNjI1IiBzdHlsZT0ic3Ryb2tlOiMxODE4MTg7c3Ryb2tlLXdpZHRoOjE7Ii8+PGxpbmUgc3R5bGU9InN0cm9rZTojMTgxODE4O3N0cm9rZS13aWR0aDoxOyIgeDE9IjE3ODciIHgyPSIxODQ5IiB5MT0iNTM1LjA2MjUiIHkyPSI1MzUuMDYyNSIvPjxsaW5lIHN0eWxlPSJzdHJva2U6IzE4MTgxODtzdHJva2Utd2lkdGg6MTsiIHgxPSIxODQ5IiB4Mj0iMTg0OSIgeTE9IjUzNS4wNjI1IiB5Mj0iODUwLjUyMzQiLz48cG9seWdvbiBmaWxsPSIjMTgxODE4IiBwb2ludHM9IjE4NDUsODQwLjUyMzQsMTg0OSw4NTAuNTIzNCwxODUzLDg0MC41MjM0LDE4NDksODQ0LjUyMzQiIHN0eWxlPSJzdHJva2U6IzE4MTgxODtzdHJva2Utd2lkdGg6MTsiLz48bGluZSBzdHlsZT0ic3Ryb2tlOiMxODE4MTg7c3Ryb2tlLXdpZHRoOjE7IiB4MT0iMTM4MSIgeDI9IjE4NDkiIHkxPSI4NTAuNTIzNCIgeTI9Ijg1MC41MjM0Ii8+PGxpbmUgc3R5bGU9InN0cm9rZTojMTgxODE4O3N0cm9rZS13aWR0aDoxOyIgeDE9IjE1ODciIHgyPSIxNTg3IiB5MT0iODUwLjUyMzQiIHkyPSI4ODUuNTIzNCIvPjxwb2x5Z29uIGZpbGw9IiMxODE4MTgiIHBvaW50cz0iMTU4Myw4NzUuNTIzNCwxNTg3LDg4NS41MjM0LDE1OTEsODc1LjUyMzQsMTU4Nyw4NzkuNTIzNCIgc3R5bGU9InN0cm9rZTojMTgxODE4O3N0cm9rZS13aWR0aDoxOyIvPjxsaW5lIHN0eWxlPSJzdHJva2U6IzE4MTgxODtzdHJva2Utd2lkdGg6MTsiIHgxPSIxNTMiIHgyPSIxNTMiIHkxPSIyOTAuNTMxMyIgeTI9IjQwNi4zMzk4Ii8+PHBvbHlnb24gZmlsbD0iIzE4MTgxOCIgcG9pbnRzPSIxNDksMzk2LjMzOTgsMTUzLDQwNi4zMzk4LDE1NywzOTYuMzM5OCwxNTMsNDAwLjMzOTgiIHN0eWxlPSJzdHJva2U6IzE4MTgxODtzdHJva2Utd2lkdGg6MTsiLz48bGluZSBzdHlsZT0ic3Ryb2tlOiMxODE4MTg7c3Ryb2tlLXdpZHRoOjE7IiB4MT0iNjQzIiB4Mj0iNjQzIiB5MT0iMjkwLjUzMTMiIHkyPSIzMTAuNTMxMyIvPjxwb2x5Z29uIGZpbGw9IiMxODE4MTgiIHBvaW50cz0iNjM5LDMwMC41MzEzLDY0MywzMTAuNTMxMyw2NDcsMzAwLjUzMTMsNjQzLDMwNC41MzEzIiBzdHlsZT0ic3Ryb2tlOiMxODE4MTg7c3Ryb2tlLXdpZHRoOjE7Ii8+PGxpbmUgc3R5bGU9InN0cm9rZTojMTgxODE4O3N0cm9rZS13aWR0aDoxOyIgeDE9IjExMjgiIHgyPSIxMTI4IiB5MT0iMjkwLjUzMTMiIHkyPSI0NDAuMjYxNyIvPjxwb2x5Z29uIGZpbGw9IiMxODE4MTgiIHBvaW50cz0iMTEyNCw0MzAuMjYxNywxMTI4LDQ0MC4yNjE3LDExMzIsNDMwLjI2MTcsMTEyOCw0MzQuMjYxNyIgc3R5bGU9InN0cm9rZTojMTgxODE4O3N0cm9rZS13aWR0aDoxOyIvPjxsaW5lIHN0eWxlPSJzdHJva2U6IzE4MTgxODtzdHJva2Utd2lkdGg6MTsiIHgxPSIxNTg3IiB4Mj0iMTU4NyIgeTE9IjI5MC41MzEzIiB5Mj0iMzYyLjM3NSIvPjxwb2x5Z29uIGZpbGw9IiMxODE4MTgiIHBvaW50cz0iMTU4MywzNTIuMzc1LDE1ODcsMzYyLjM3NSwxNTkxLDM1Mi4zNzUsMTU4NywzNTYuMzc1IiBzdHlsZT0ic3Ryb2tlOiMxODE4MTg7c3Ryb2tlLXdpZHRoOjE7Ii8+PGxpbmUgc3R5bGU9InN0cm9rZTojMTgxODE4O3N0cm9rZS13aWR0aDoxOyIgeDE9IjE1MyIgeDI9IjE1MyIgeTE9Ijg3NC40MDIzIiB5Mj0iOTkwLjIxMDkiLz48cG9seWdvbiBmaWxsPSIjMTgxODE4IiBwb2ludHM9IjE0OSw5ODAuMjEwOSwxNTMsOTkwLjIxMDksMTU3LDk4MC4yMTA5LDE1Myw5ODQuMjEwOSIgc3R5bGU9InN0cm9rZTojMTgxODE4O3N0cm9rZS13aWR0aDoxOyIvPjxsaW5lIHN0eWxlPSJzdHJva2U6IzE4MTgxODtzdHJva2Utd2lkdGg6MTsiIHgxPSI2NDMiIHgyPSI2NDMiIHkxPSI5NzAuMjEwOSIgeTI9Ijk5MC4yMTA5Ii8+PHBvbHlnb24gZmlsbD0iIzE4MTgxOCIgcG9pbnRzPSI2MzksOTgwLjIxMDksNjQzLDk5MC4yMTA5LDY0Nyw5ODAuMjEwOSw2NDMsOTg0LjIxMDkiIHN0eWxlPSJzdHJva2U6IzE4MTgxODtzdHJva2Utd2lkdGg6MTsiLz48bGluZSBzdHlsZT0ic3Ryb2tlOiMxODE4MTg7c3Ryb2tlLXdpZHRoOjE7IiB4MT0iMTEyOCIgeDI9IjExMjgiIHkxPSI4NDAuNDgwNSIgeTI9Ijk5MC4yMTA5Ii8+PHBvbHlnb24gZmlsbD0iIzE4MTgxOCIgcG9pbnRzPSIxMTI0LDk4MC4yMTA5LDExMjgsOTkwLjIxMDksMTEzMiw5ODAuMjEwOSwxMTI4LDk4NC4yMTA5IiBzdHlsZT0ic3Ryb2tlOiMxODE4MTg7c3Ryb2tlLXdpZHRoOjE7Ii8+PGxpbmUgc3R5bGU9InN0cm9rZTojMTgxODE4O3N0cm9rZS13aWR0aDoxOyIgeDE9IjE1ODciIHgyPSIxNTg3IiB5MT0iOTE4LjM2NzIiIHkyPSI5OTAuMjEwOSIvPjxwb2x5Z29uIGZpbGw9IiMxODE4MTgiIHBvaW50cz0iMTU4Myw5ODAuMjEwOSwxNTg3LDk5MC4yMTA5LDE1OTEsOTgwLjIxMDksMTU4Nyw5ODQuMjEwOSIgc3R5bGU9InN0cm9rZTojMTgxODE4O3N0cm9rZS13aWR0aDoxOyIvPjxsaW5lIHN0eWxlPSJzdHJva2U6IzE4MTgxODtzdHJva2Utd2lkdGg6MTsiIHgxPSI5NjIiIHgyPSI5NjIiIHkxPSI5OTYuMjEwOSIgeTI9IjEwMTYuMjEwOSIvPjxwb2x5Z29uIGZpbGw9IiMxODE4MTgiIHBvaW50cz0iOTU4LDEwMDYuMjEwOSw5NjIsMTAxNi4yMTA5LDk2NiwxMDA2LjIxMDksOTYyLDEwMTAuMjEwOSIgc3R5bGU9InN0cm9rZTojMTgxODE4O3N0cm9rZS13aWR0aDoxOyIvPjwhLS1TUkM9W2pMTFhSemVtNEZzVU50NllxYWdiZU14aGY3TFRydWUyYVFmclFXTGdsdmx1MFh3RVpNbTNPekYtIC15dnMwZTZjZE9HcWxnM3VkZHRsbFJucFpjNldzNVdZTUJVTUdhcUlFbkRncFdtaE9Db29zU0plWFU4ekJSTTFlcEp5UVdZTUVSNEtSV3NfNHUyUk5WWmJ2VXR6ckhLU3pURnFOVi15Z1Z1R29meTdfVkhKS3hkbG9zYWxGSC1TLVI4czc0cjl2RXBDQndMUWtQN3VYVjMtR184ZElRblpuWU45SFBTTkdXNGdYeU8yNWFuOFUwRHBQa3NBWmxXMmFMVG95U0lhdUNtWFAwT3ZlR01KcmJVOUxJOW9RRlVzb3gzcXNFaUpTNURLcTV3WkZRN3M1dHJjZnNGRHVnNS02cWdCcTVPd0xlTVRJeFE2cmZzVTQ5LVNVMjFsUlZlMzZReGQySWVreVlHdjlaNWMxYTh2M0gtWHE3bVhxSU92aElNNEY4UmxNV2I3b2MtcWRkSzZGeENmS25GcU5PUmVaQzBiMGZRQlQybnA2bzQxZVNXdWVBZm5iZnB1emQwQjZQNmtPcVBKbEc4ZncxWFVRRzlZbWhvSkRTUlViaHVIS2RRdU5ZZDhmQ1hjLXd4R1FOVVFTVTNlV2M4bUVEVjYwTWExWW44cEhzazVQdnJqMlRKaVlsMVFxLVdHOE5uMEZBamRqV1VWVzRzT0tBTFJKMzVvZWZpblplTjhPRUhPN2V2OHFNTEp4cjJVYXJwaHpZcm1PSDlxN1k1eG9oaUtUYXNnZnpnWWtlT2t2dDBBMG91U19WTDljU0ZBMllnTExqcEZ3UmRiZU81M296akdyQ3VibzJRN0xRY29uRlR5UVdmVXM3UWhCOUFqMmJVYjdlRVB0ZGZJZWVRTzZ4SkpBNm9kUnBzaDBIZUNHNkVxaVJsMHFkLV9tTEZvWWRWSzFHbC1CSV82cS13eXpDVHZBQnFhdTROdzVQVkl6ZXJURlFyb09HZUFkcnpsejZzOFhMeFlXUHZMTFhtU29KeEluVWFBa2JUaTI1cU8yMlpPM3ZlRXdiVmg1Z1RlSkZGa1hwUkoyc0ZodmN0Y25RcnFQNmdYeE15Ny1uUHc0TnBJY0R6TldYaXpKeE1LYjBKQjJsSkdaV1RzOFdwaU9qcDlnTGVaU2hXTlpuSFdrdnRBMUpxczNjS2V4Qi1Da2cwN2VtakR4NHhYSGNlWWlKLUVQTnFSYXNlM2lHcVZZeVFXYkRhQ3RPc0VwTWlmMlRIUUdvaDA4WTF0eGxSZE9uRWVGS19nczJ5dHpYLVhZeXR6WFJ3bXkzTFlhSlNJeU1QTVdEVTk3M3VwcU9oX0RaODRXVlo1eXJfNmxtMDBdLS0+PC9nPjwvc3ZnPg==;" vertex="1" parent="1">
            <mxGeometry x="-590" y="-270" width="1876" height="1049" as="geometry" />
          </mxCell>
        </UserObject>
      </root>
    </mxGraphModel>
  </diagram>
</mxfile>
